<?xml version="1.0" standalone="no"?>
<!DOCTYPE svg PUBLIC "-//W3C//DTD SVG 20010904//EN"
 "http://www.w3.org/TR/2001/REC-SVG-20010904/DTD/svg10.dtd">
<svg version="1.0" xmlns="http://www.w3.org/2000/svg"
 width="1600.000000pt" height="1600.000000pt" viewBox="0 0 1600.000000 1600.000000"
 preserveAspectRatio="xMidYMid meet">
<metadata>
Created by potrace 1.11, written by Peter Selinger 2001-2013
</metadata>
<g transform="translate(0.000000,1600.000000) scale(0.100000,-0.100000)"
fill="#000000" stroke="none">
<path d="M3330 8001 l0 -3681 940 0 940 0 0 1030 0 1030 313 1 c301 0 514 -1
526 -3 3 0 8 0 11 1 3 1 181 4 395 7 457 6 505 7 505 14 0 3 12 5 28 6 24 1
67 6 177 19 17 3 44 7 60 10 17 3 44 7 60 10 17 3 40 7 51 9 12 2 37 7 55 10
49 8 72 13 115 25 21 6 40 8 43 6 2 -3 9 -1 15 4 6 5 25 12 41 15 56 10 150
37 220 64 39 14 72 27 75 27 47 7 319 135 445 210 83 50 217 139 245 165 9 8
36 31 60 50 77 62 234 224 322 332 108 134 280 430 313 538 4 14 11 30 15 35
9 11 70 190 70 204 0 6 5 22 11 38 7 15 13 35 14 43 2 8 10 47 20 85 9 39 18
81 20 95 2 14 4 25 5 25 1 0 3 11 6 25 2 14 9 48 14 75 32 163 37 255 35 625
-2 195 -5 366 -8 380 -14 73 -17 89 -21 121 -5 39 -8 53 -31 154 -25 108 -98
354 -114 380 -3 6 -6 15 -7 21 -1 6 -32 71 -69 145 -68 136 -188 327 -243 387
-16 18 -46 52 -65 75 -87 104 -204 210 -382 344 -22 17 -138 91 -175 112 -64
36 -267 134 -365 176 -33 14 -248 84 -280 92 -11 2 -31 6 -45 9 -14 2 -32 7
-40 11 -13 5 -39 11 -117 28 -37 8 -77 16 -98 20 -11 2 -29 6 -40 8 -11 3 -40
8 -65 12 -25 4 -52 9 -60 10 -8 2 -37 6 -65 9 -27 4 -61 9 -75 11 -14 3 -43 8
-65 11 -22 3 -871 8 -1887 11 l-1848 5 0 -3681z m2955 2194 c204 -3 381 -7
395 -9 14 -2 49 -7 79 -11 30 -4 61 -8 70 -11 9 -2 33 -8 54 -13 20 -5 37 -6
37 -3 0 3 5 1 12 -6 7 -7 21 -12 31 -12 26 0 195 -68 230 -92 15 -11 27 -17
27 -13 0 8 94 -56 98 -67 2 -4 9 -8 15 -8 6 0 20 -9 32 -20 11 -11 38 -37 60
-57 66 -63 166 -193 148 -193 -5 0 -3 -4 2 -8 21 -14 103 -212 93 -224 -1 -2
4 -12 10 -24 26 -50 35 -134 35 -364 0 -237 -5 -291 -37 -398 -28 -91 -101
-267 -119 -288 -7 -7 -23 -29 -37 -50 -37 -55 -170 -186 -236 -232 -46 -32
-192 -103 -249 -122 -22 -7 -44 -16 -50 -20 -5 -4 -37 -13 -70 -20 -82 -19
-85 -19 -125 -24 -19 -3 -56 -8 -82 -11 -26 -4 -69 -8 -97 -8 -28 -1 -51 -6
-51 -10 0 -4 -7 -4 -17 1 -9 5 -28 7 -42 3 -14 -4 -311 -8 -658 -10 l-633 -3
0 1166 0 1166 343 2 c188 2 347 2 352 1 6 -2 177 -5 380 -8z"/>
<path d="M10998 11675 c-3 -3 -2 -24 2 -48 3 -23 3 -56 -1 -74 -3 -17 -3 -37
2 -44 4 -7 3 -21 -2 -31 -7 -12 -6 -18 1 -18 6 0 8 -5 4 -11 -8 -13 -9 -118
-1 -125 2 -3 1 -20 -3 -38 -4 -19 -4 -40 0 -47 5 -7 5 -21 1 -32 -4 -11 -4
-39 -1 -63 4 -24 4 -44 0 -44 -4 0 -4 -20 0 -44 4 -25 3 -52 -2 -60 -6 -10 -5
-16 2 -16 6 0 8 -5 4 -12 -7 -11 -8 -168 0 -175 2 -2 0 -19 -4 -37 -4 -19 -4
-40 1 -47 4 -7 3 -21 -2 -31 -7 -12 -6 -18 1 -18 6 0 8 -5 4 -11 -8 -13 -9
-118 -1 -125 2 -3 1 -20 -3 -38 -4 -19 -4 -40 0 -47 5 -7 5 -21 1 -32 -4 -11
-4 -39 -1 -63 4 -24 4 -44 0 -44 -4 0 -4 -20 0 -44 4 -25 3 -52 -2 -60 -6 -10
-5 -16 2 -16 6 0 8 -5 4 -11 -8 -13 -9 -118 -1 -125 2 -3 1 -20 -3 -38 -4 -19
-4 -40 0 -47 5 -7 5 -21 1 -32 -4 -11 -4 -39 -1 -63 4 -24 4 -44 0 -44 -4 0
-4 -20 0 -44 4 -25 3 -52 -2 -60 -6 -10 -5 -16 2 -16 6 0 8 -5 4 -12 -7 -11
-8 -168 0 -175 2 -2 0 -19 -4 -37 -4 -19 -4 -40 1 -47 4 -7 3 -21 -2 -31 -7
-12 -6 -18 1 -18 6 0 8 -5 4 -11 -8 -13 -9 -118 -1 -125 2 -3 1 -20 -3 -38 -4
-19 -4 -40 0 -47 5 -7 5 -21 1 -32 -4 -11 -4 -39 -1 -63 4 -24 4 -44 0 -44 -4
0 -4 -20 0 -44 4 -25 3 -52 -2 -60 -6 -10 -5 -16 2 -16 6 0 8 -5 4 -11 -8 -13
-9 -118 -1 -125 2 -3 1 -20 -3 -38 -4 -19 -4 -40 0 -47 5 -7 5 -21 1 -32 -4
-11 -4 -39 -1 -63 4 -24 4 -44 0 -44 -4 0 -4 -20 0 -44 4 -25 3 -52 -2 -60 -6
-10 -5 -16 2 -16 6 0 8 -5 4 -12 -7 -11 -8 -168 0 -175 2 -2 0 -19 -4 -37 -4
-19 -4 -40 1 -47 4 -7 3 -21 -2 -31 -7 -12 -6 -18 1 -18 6 0 8 -5 4 -11 -8
-13 -9 -118 -1 -125 2 -3 1 -20 -3 -38 -4 -19 -4 -40 0 -47 5 -7 5 -21 1 -32
-4 -11 -4 -39 -1 -63 4 -24 4 -44 0 -44 -4 0 -4 -20 0 -44 4 -25 3 -52 -2 -60
-6 -10 -5 -16 2 -16 6 0 8 -5 4 -11 -8 -13 -9 -118 -1 -125 2 -3 1 -20 -3 -38
-4 -19 -4 -40 0 -47 5 -7 5 -21 1 -32 -4 -11 -4 -39 -1 -63 4 -24 4 -44 0 -44
-4 0 -4 -20 0 -44 4 -25 3 -52 -2 -60 -6 -10 -5 -16 2 -16 6 0 8 -5 4 -12 -7
-11 -8 -168 0 -175 2 -2 0 -19 -4 -37 -4 -19 -4 -40 1 -47 4 -7 3 -21 -2 -31
-7 -12 -6 -18 1 -18 6 0 8 -5 4 -11 -8 -13 -9 -118 -1 -125 2 -3 1 -20 -3 -38
-4 -19 -4 -40 0 -47 5 -7 5 -21 1 -32 -4 -11 -4 -39 -1 -63 4 -24 4 -44 0 -44
-4 0 -4 -20 0 -44 4 -25 3 -52 -2 -60 -6 -10 -5 -16 2 -16 6 0 8 -5 4 -11 -8
-13 -9 -118 -1 -125 2 -3 1 -20 -3 -38 -4 -19 -4 -40 0 -47 5 -7 5 -21 1 -32
-4 -11 -4 -39 -1 -63 4 -24 4 -44 0 -44 -4 0 -4 -20 0 -44 4 -25 3 -52 -2 -60
-6 -10 -5 -16 2 -16 7 0 8 -6 3 -15 -5 -8 -6 -46 -3 -84 3 -39 2 -81 -1 -95
-4 -13 -3 -29 1 -36 4 -7 4 -24 0 -39 -4 -14 -4 -35 0 -46 4 -11 3 -26 -2 -32
-7 -9 -7 -13 1 -13 8 0 9 -6 3 -17 -5 -10 -6 -29 -2 -43 4 -14 3 -33 -2 -42
-6 -12 -5 -18 2 -18 6 0 8 -5 4 -11 -8 -13 -9 -118 -1 -125 2 -3 1 -20 -3 -38
-4 -19 -4 -40 0 -47 5 -7 5 -22 0 -33 -4 -12 -4 -30 0 -41 4 -11 4 -32 0 -46
-4 -15 -4 -32 0 -39 5 -7 5 -22 1 -33 -4 -11 -4 -39 -1 -63 4 -24 4 -44 0 -44
-4 0 -4 -20 0 -44 4 -25 3 -52 -2 -60 -6 -10 -5 -16 2 -16 6 0 8 -5 4 -11 -4
-6 -6 -34 -5 -63 1 -28 1 -67 0 -86 -1 -45 -1 -48 4 -88 2 -18 0 -35 -4 -38
-4 -2 -4 -17 0 -32 4 -15 5 -38 1 -52 -4 -14 -5 -31 -2 -37 3 -10 513 -13
2503 -13 l2499 0 0 785 0 785 -1502 1 c-827 0 -1529 0 -1560 -1 l-58 -1 -1 43
c-1 24 0 47 1 53 1 5 1 17 1 25 -1 8 0 40 0 70 1 30 1 62 0 70 0 8 0 47 0 85
1 39 1 77 1 85 0 14 -2 136 -2 173 0 9 0 23 -1 30 0 10 0 64 0 172 0 11 0 67
0 125 0 58 0 114 1 125 1 11 1 27 1 35 -1 8 0 38 0 65 1 28 1 57 0 65 0 8 0
47 0 85 1 39 1 77 1 85 0 14 -2 136 -2 173 0 9 0 23 -1 30 0 10 0 64 0 172 0
11 0 67 0 125 0 58 0 114 1 125 1 11 1 27 1 35 -1 8 0 38 0 65 1 28 1 57 0 65
0 8 0 47 0 85 1 39 1 77 1 85 0 14 -2 136 -2 173 0 9 0 23 -1 30 0 10 0 64 0
172 0 11 0 67 0 125 0 58 0 114 1 125 1 11 1 27 1 35 -1 8 0 38 0 65 1 28 1
57 0 65 0 8 0 47 0 85 1 39 1 77 1 85 0 14 -2 136 -2 173 0 9 0 23 -1 30 0 10
0 64 0 172 0 11 0 67 0 125 0 58 0 114 1 125 1 11 1 27 1 35 -1 8 0 38 0 65 1
28 1 57 0 65 0 8 0 47 0 85 1 39 1 77 1 85 0 14 -2 136 -2 173 0 9 0 23 -1 30
-1 16 0 151 1 201 1 22 4 44 7 49 3 6 1 7 -5 3 -9 -5 -9 0 -3 17 6 14 8 27 5
30 -3 2 -5 38 -4 78 0 41 0 135 0 209 -1 74 -1 144 0 155 1 11 1 27 1 35 -1 8
0 38 0 65 1 28 1 57 0 65 0 8 0 47 0 85 1 39 1 79 1 90 -3 59 -3 161 -2 170 1
6 2 22 1 38 l-1 27 -938 0 c-516 0 -941 -2 -944 -5z"/>
<path d="M92 10422 l-92 -3 0 -3049 0 -3050 779 0 780 0 1 138 c1 134 1 973 1
1507 -1 149 -1 358 -1 465 1 289 1 1067 0 1285 0 105 0 309 1 455 0 146 -1
546 -1 890 -1 344 -1 630 -1 635 1 126 1 475 0 583 l-1 142 -46 0 c-40 0 -457
-1 -487 -1 -130 -2 -827 1 -834 4 -3 1 -48 1 -99 -1z"/>
</g>
</svg>
