<!DOCTYPE svg PUBLIC "-//W3C//DTD SVG 20010904//EN" "http://www.w3.org/TR/2001/REC-SVG-20010904/DTD/svg10.dtd">
<svg version="1.0" xmlns="http://www.w3.org/2000/svg" width="167" height="197" viewBox="0 0 1140 1140" preserveAspectRatio="xMidYMid meet">
<g id="layer101" fill="#000000" stroke="none">
 <path d="M0 990 l0 -150 208 0 207 0 0 -270 0 -270 -207 0 -208 0 0 -150 0 -150 570 0 570 0 0 150 0 150 -207 0 -208 0 3 279 3 279 -148 141 -148 141 -217 0 -218 0 0 -150z"/>
 </g>
<g id="layer102" fill="#daa652" stroke="none">
 <path d="M0 990 l0 -150 209 0 210 0 3 150 3 150 -212 0 -213 0 0 -150z"/>
 </g>

</svg>