<!DOCTYPE svg PUBLIC "-//W3C//DTD SVG 20010904//EN" "http://www.w3.org/TR/2001/REC-SVG-20010904/DTD/svg10.dtd">
<svg version="1.0" xmlns="http://www.w3.org/2000/svg" width="214" height="37" viewBox="0 0 2860 490" preserveAspectRatio="xMidYMid meet">
<g id="layer101" fill="#211f21" stroke="none">
 <path d="M0 252 l0 -242 50 0 50 0 0 185 0 185 80 0 80 0 0 50 c0 50 0 50 -32 50 -18 0 -77 3 -130 7 l-98 6 0 -241z"/>
 <path d="M350 477 c-47 -16 -80 -68 -80 -124 0 -48 20 -97 47 -111 15 -9 14 -12 -5 -32 -28 -30 -36 -72 -22 -113 26 -81 109 -110 254 -91 l46 7 0 54 c0 47 -2 54 -16 49 -51 -19 -103 -27 -135 -19 -28 8 -34 14 -37 40 -3 29 0 33 35 42 21 6 57 11 81 11 l42 0 0 44 0 43 -71 5 c-83 6 -116 29 -105 71 12 48 108 61 198 27 29 -11 54 -20 56 -20 1 0 2 25 2 55 0 54 0 54 -37 64 -51 14 -209 13 -253 -2z"/>
 <path d="M670 244 c0 -233 1 -246 18 -233 9 7 77 69 150 137 l132 124 0 -131 0 -131 255 0 255 0 0 45 0 45 -80 0 -80 0 0 196 0 195 -47 -3 -48 -3 -3 -192 -2 -193 -70 0 -70 0 0 195 c0 150 -3 195 -12 194 -7 0 -76 -58 -153 -128 l-140 -129 -3 129 -3 129 -49 0 -50 0 0 -246z"/>
 <path d="M1380 480 c0 -19 235 -480 243 -477 7 2 257 474 257 485 0 1 -27 2 -60 2 -59 0 -60 0 -80 -40 l-20 -40 -98 0 -97 0 -17 40 c-16 40 -17 40 -72 40 -31 0 -56 -4 -56 -10z m274 -212 c-15 -29 -28 -55 -30 -56 -3 -4 -54 93 -54 103 0 3 25 5 55 5 l55 0 -26 -52z"/>
 <path d="M1911 476 c-21 -26 -9 -79 22 -96 24 -13 30 -13 55 0 33 19 42 69 17 94 -20 20 -78 21 -94 2z"/>
 <path d="M2060 250 l0 -240 105 0 c121 0 167 16 207 72 19 28 23 45 23 109 0 65 -4 81 -26 115 l-27 40 54 60 c29 32 53 65 54 72 0 8 -18 12 -59 12 -59 0 -60 0 -106 -53 -44 -49 -49 -52 -86 -49 l-39 4 0 49 0 49 -50 0 -50 0 0 -240z m207 5 c50 -58 16 -139 -64 -151 l-43 -7 0 98 0 98 42 -6 c29 -4 50 -14 65 -32z"/>
 <path d="M2551 474 c-76 -39 -101 -121 -101 -330 l0 -134 54 0 54 0 4 158 c4 159 11 191 47 219 20 16 63 16 94 2 41 -19 50 -53 55 -221 l4 -158 49 0 49 0 0 172 c0 193 -11 236 -73 280 -43 31 -184 38 -236 12z"/>
 </g>

</svg>