<svg width="50" height="49" viewBox="0 0 50 49" fill="none" xmlns="http://www.w3.org/2000/svg">
<path d="M30.592 0.00681334C30.1599 -0.0245137 29.7163 0.0516528 29.3056 0.246404L24.9984 2.2673L20.689 0.244321H20.6869C19.5932 -0.270465 18.2698 0.0536004 17.5415 1.00476V1.00684L14.6771 4.77571L9.90515 4.96113H9.90304C8.69447 5.00961 7.67506 5.90316 7.48221 7.08203L6.71963 11.7301L2.58352 14.0843C1.53469 14.6798 1.04907 15.9361 1.43225 17.0698L2.95108 21.5387L0.395055 25.5159C-0.25272 26.5237 -0.0910545 27.8598 0.785852 28.6869L4.2312 31.9453L3.84252 36.6392C3.74415 37.8303 4.51987 38.9349 5.67821 39.2684H5.68032L10.2685 40.5727L12.1359 44.9082V44.9103C12.6108 46.0044 13.8163 46.6462 15.013 46.3916L19.6856 45.4478L23.3781 48.4291V48.4271C23.8468 48.8065 24.427 49 25.0005 49C25.5762 49 26.1533 48.8055 26.6207 48.4271L30.3132 45.4457L34.9859 46.3895C36.1802 46.6422 37.3886 46.0049 37.863 44.9061L39.7304 40.5727L44.3164 39.2684H44.3185C45.4801 38.9368 46.2544 37.8285 46.1563 36.6392L45.7676 31.9432L49.213 28.6848C50.0887 27.8576 50.2541 26.5223 49.6059 25.5139L47.0499 21.5366L48.5687 17.0678V17.0657C48.9474 15.9345 48.4672 14.6782 47.4174 14.0823L43.2792 11.728L42.5187 7.07787V7.07578C42.3209 5.90179 41.3024 5.00961 40.0937 4.96113L35.3217 4.77571L32.4573 1.00893C32.0932 0.530145 31.5783 0.209316 31.0188 0.0734821C30.8789 0.0395237 30.7361 0.0172557 30.592 0.00681334ZM19.6307 2.06521C19.6827 2.07048 19.7351 2.08546 19.7849 2.10896L24.9984 4.55487L30.2118 2.10896H30.2139C30.41 2.01601 30.6451 2.07115 30.7801 2.24855L34.2423 6.80286L40.0092 7.02578C40.2368 7.03491 40.4127 7.18991 40.4507 7.41538L41.3696 13.0281L46.3718 15.874C46.5652 15.9838 46.6509 16.2034 46.5809 16.4157L44.7473 21.8117L47.8357 26.6201C47.9551 26.8058 47.9274 27.0388 47.7639 27.1931L43.5982 31.1328L44.0672 36.8059C44.0859 37.0331 43.9562 37.22 43.7355 37.283L38.1904 38.8601L35.9365 44.0978C35.8462 44.3067 35.6326 44.4145 35.4253 44.3707L35.421 44.3686L29.7576 43.2248L25.292 46.8291C25.2034 46.9008 25.1062 46.9333 25.0005 46.9333C24.8926 46.9333 24.7942 46.9019 24.7069 46.8312L20.2412 43.2269L14.5778 44.3707H14.5715C14.3643 44.4148 14.1542 44.3072 14.0624 44.0957V44.0998L11.8084 38.8601L6.26546 37.285C6.04588 37.2219 5.91325 37.0313 5.9317 36.808L6.40065 31.1328L2.23497 27.1952V27.1931C2.07142 27.0389 2.04302 26.8091 2.16315 26.6222L5.25361 21.8137L3.41792 16.4157C3.34685 16.2054 3.43209 15.9867 3.62705 15.8761H3.62916L8.62925 13.0301L9.55027 7.41121C9.58661 7.18903 9.76074 7.03566 9.98754 7.02578L15.7544 6.80286L19.2146 2.25063C19.3186 2.11481 19.4748 2.04939 19.6307 2.06521ZM23.9168 9.56544C23.9168 10.6321 22.8353 11.6988 20.6721 11.6988V13.8322H23.9168V23.4325H24.0245H26.0799V9.56544H23.9168ZM10.9381 26.6326V34.0995H12.6682V31.0057H15.9129V29.7265H12.6682V28.0202H16.3459V26.6326H10.9381ZM17.6429 26.6326V34.0995H19.2653V31.1119H20.8876C22.1855 31.1119 22.1863 32.072 22.2945 33.2453C22.4026 33.5654 22.4018 33.8862 22.5099 34.0995H24.1323C23.8078 33.6729 23.8091 32.9253 23.8091 32.712C23.8091 30.8986 22.9438 30.6853 22.7275 30.5786C23.1601 30.3653 23.9168 29.9398 23.9168 28.6598C23.9168 27.0597 22.4031 26.6326 21.646 26.6326H17.6429ZM25.6469 26.6326V34.0995H31.38V32.712H27.2692V30.8994H30.9469V29.6202H27.2692V28.0202H31.2722V26.6326H25.6469ZM33.3255 26.6326V34.0995H39.0586V32.712H34.9478V30.8994H38.6256V29.6202H34.9478V28.0202H38.9509V26.6326H33.3255ZM19.2653 27.9118H21.1052C21.5378 27.9118 22.2945 28.0185 22.2945 28.9785C22.2945 29.9386 21.5378 30.0452 21.1052 30.0452H19.2653V27.9118Z" fill="#F06563"/>
</svg>
