<svg width="54" height="50" viewBox="0 0 54 50" fill="none" xmlns="http://www.w3.org/2000/svg">
<path d="M22.7193 8.07863e-05C22.499 -0.00293147 22.2882 0.0783841 22.134 0.228969C21.8225 0.527124 21.8225 1.01803 22.134 1.3192C22.4487 1.61735 22.9616 1.61735 23.2762 1.3192C23.5877 1.01803 23.5877 0.527124 23.2762 0.228969C23.1252 0.0844078 22.9269 0.00610376 22.7193 8.07863e-05ZM48.2511 0.00309247C48.034 8.09792e-05 47.8231 0.0813956 47.669 0.228969C47.3543 0.530137 47.3543 1.01803 47.669 1.3192C47.82 1.46376 48.0245 1.54507 48.2385 1.54507C48.4525 1.54507 48.657 1.46376 48.8112 1.3192C49.1227 1.01803 49.1227 0.530137 48.8112 0.228969C48.6602 0.0874193 48.4619 0.00610395 48.2511 0.00309247ZM35.4726 1.42762C29.2548 1.42762 24.195 6.2704 24.195 12.2215C24.195 15.8897 25.7621 18.0822 27.2315 19.5911C27.9679 20.344 28.6664 20.9463 29.1384 21.4944C29.6073 22.0396 29.8338 22.4702 29.8338 23.0153V27.6413C29.8338 29.3369 31.2844 30.7252 33.056 30.7252H34.0849C34.365 31.183 34.8779 31.4962 35.4726 31.4962C36.0673 31.4962 36.5802 31.183 36.8603 30.7252H37.8892C39.6608 30.7252 41.1114 29.3369 41.1114 27.6413V23.0153C41.1114 22.4702 41.3379 22.0396 41.8068 21.4944C42.2788 20.9463 42.9773 20.344 43.7136 19.5911C45.1831 18.0822 46.7501 15.8897 46.7501 12.2215C46.7501 6.2704 41.6903 1.42762 35.4726 1.42762ZM45.9729 2.18054C45.7558 2.17753 45.545 2.25884 45.3908 2.40943C45.0761 2.70758 45.0761 3.19849 45.3908 3.49965C45.7055 3.79781 46.2152 3.79781 46.5299 3.49965C46.8445 3.19849 46.8445 2.70758 46.5299 2.40943C46.382 2.26486 46.1838 2.18656 45.9729 2.18054ZM24.9974 2.18355C24.7772 2.18054 24.5663 2.26185 24.4122 2.40943C24.1006 2.71059 24.1006 3.19849 24.4122 3.49965C24.7268 3.80082 25.2397 3.80082 25.5544 3.49965C25.8659 3.19849 25.8659 2.71059 25.5544 2.40943C25.4034 2.26788 25.2051 2.18656 24.9974 2.18355ZM35.4726 2.9696C40.8219 2.9696 45.1391 7.10162 45.1391 12.2215C45.1391 15.4922 43.8867 17.1546 42.5368 18.537C41.8634 19.2297 41.1523 19.832 40.567 20.5126C39.9786 21.1963 39.5003 22.0185 39.5003 23.0153H37.8892V14.2122C38.7797 13.8719 39.5003 13.1912 39.5003 12.2215C39.5003 10.9536 38.4084 9.90851 37.0837 9.90851C36.4575 9.90851 35.9037 10.1705 35.4726 10.55C35.0415 10.1705 34.4877 9.90851 33.8615 9.90851C32.5368 9.90851 31.4449 10.9536 31.4449 12.2215C31.4449 13.1912 32.1655 13.8719 33.056 14.2122V23.0153H31.4449C31.4449 22.0185 30.9666 21.1963 30.3782 20.5126C29.7929 19.832 29.0818 19.2297 28.4084 18.537C27.0585 17.1546 25.8061 15.4922 25.8061 12.2215C25.8061 7.10162 30.1233 2.9696 35.4726 2.9696ZM48.9371 6.43303C48.8269 6.43303 48.7199 6.4511 48.6224 6.49025C48.2102 6.65589 48.0151 7.10463 48.185 7.49916C48.3549 7.89369 48.8269 8.08042 49.2391 7.91779C49.6482 7.75215 49.8433 7.30341 49.6734 6.90887C49.5507 6.62277 49.258 6.43604 48.9371 6.43303ZM22.0302 6.43604C21.6998 6.42701 21.3977 6.61674 21.2718 6.90887C21.1019 7.30341 21.297 7.75215 21.7061 7.91779C22.1183 8.08042 22.5871 7.89369 22.7602 7.49916C22.9301 7.10463 22.735 6.65589 22.3228 6.49025C22.2315 6.45411 22.1308 6.43604 22.0302 6.43604ZM17.7507 11.4505C17.3071 11.4505 16.9452 11.7968 16.9452 12.2215C16.9452 12.6461 17.3071 12.9925 17.7507 12.9925C18.1944 12.9925 18.5563 12.6461 18.5563 12.2215C18.5563 11.7968 18.1944 11.4505 17.7507 11.4505ZM20.9729 11.4505C20.5292 11.4505 20.1673 11.7968 20.1673 12.2215C20.1673 12.6461 20.5292 12.9925 20.9729 12.9925C21.4166 12.9925 21.7784 12.6461 21.7784 12.2215C21.7784 11.7968 21.4166 11.4505 20.9729 11.4505ZM33.8615 11.4505C34.3178 11.4505 34.6671 11.7848 34.6671 12.2215H36.2781C36.2781 11.7848 36.6274 11.4505 37.0837 11.4505C37.5399 11.4505 37.8892 11.7848 37.8892 12.2215C37.8892 12.6582 37.5399 12.9925 37.0837 12.9925H36.2781V23.0153H34.6671V12.9925H33.8615C33.4053 12.9925 33.056 12.6582 33.056 12.2215C33.056 11.7848 33.4053 11.4505 33.8615 11.4505ZM49.9723 11.4505C49.5286 11.4505 49.1668 11.7968 49.1668 12.2215C49.1668 12.6461 49.5286 12.9925 49.9723 12.9925C50.416 12.9925 50.7778 12.6461 50.7778 12.2215C50.7778 11.7968 50.416 11.4505 49.9723 11.4505ZM53.1945 11.4505C52.7508 11.4505 52.3889 11.7968 52.3889 12.2215C52.3889 12.6461 52.7508 12.9925 53.1945 12.9925C53.6381 12.9925 54 12.6461 54 12.2215C54 11.7968 53.6381 11.4505 53.1945 11.4505ZM48.9496 16.4649C48.6161 16.4589 48.314 16.6456 48.185 16.9408C48.0151 17.3353 48.2102 17.7841 48.6224 17.9467C49.0346 18.1123 49.5035 17.9256 49.6734 17.5311C49.8464 17.1365 49.6513 16.6878 49.2391 16.5222C49.1479 16.486 49.0472 16.468 48.9496 16.4649ZM22.0207 16.4649C21.9137 16.4649 21.8067 16.486 21.7061 16.5252C21.297 16.6878 21.1019 17.1396 21.2718 17.5341C21.4417 17.9256 21.9137 18.1123 22.3228 17.9497C22.735 17.7871 22.9301 17.3353 22.7602 16.9438C22.6375 16.6547 22.3448 16.468 22.0207 16.4649ZM24.9974 20.7174C24.7772 20.7144 24.5663 20.7957 24.4122 20.9433C24.1006 21.2445 24.1006 21.7354 24.4122 22.0365C24.7268 22.3347 25.2397 22.3347 25.5544 22.0365C25.8659 21.7354 25.8659 21.2445 25.5544 20.9433C25.4034 20.8018 25.2051 20.7235 24.9974 20.7174ZM45.9729 20.7174C45.7558 20.7144 45.545 20.7957 45.3908 20.9433C45.0761 21.2445 45.0761 21.7354 45.3908 22.0365C45.7055 22.3347 46.2152 22.3347 46.5299 22.0365C46.6809 21.889 46.7659 21.6932 46.7659 21.4884C46.7659 21.2836 46.6809 21.0879 46.5299 20.9433C46.382 20.8018 46.1806 20.7204 45.9729 20.7174ZM22.7161 22.8979C22.499 22.8949 22.2882 22.9762 22.134 23.1238C21.983 23.2683 21.898 23.4641 21.898 23.6689C21.898 23.8737 21.983 24.0694 22.134 24.217C22.4487 24.5152 22.9616 24.5152 23.2762 24.217C23.4273 24.0694 23.5122 23.8737 23.5122 23.6689C23.5122 23.4641 23.4273 23.2683 23.2762 23.1238C23.1252 22.9822 22.9269 22.9009 22.7161 22.8979ZM48.2511 22.8979C48.034 22.8949 47.8231 22.9762 47.669 23.1238C47.3543 23.4249 47.3543 23.9158 47.669 24.217C47.82 24.3616 48.0245 24.4429 48.2385 24.4429C48.4525 24.4429 48.657 24.3616 48.8112 24.217C49.1227 23.9158 49.1227 23.4249 48.8112 23.1238C48.6602 22.9822 48.4619 22.9009 48.2511 22.8979ZM31.4449 24.5573H39.5003V26.0993H34.6671V27.6413H39.5003C39.5003 28.5026 38.7892 29.1833 37.8892 29.1833H33.056C32.156 29.1833 31.4449 28.5026 31.4449 27.6413H33.056V26.0993H31.4449V24.5573ZM12.9175 26.0993C12.1277 26.0993 11.3725 26.2439 10.6771 26.4938C10.6519 26.4968 10.6834 26.4818 10.5921 26.5089L10.6142 26.5029C8.87092 27.0088 0.620433 29.2104 0.620433 29.2104C0.330942 29.2766 0.104384 29.4874 0.0288651 29.7585C-0.0498006 30.0326 0.0351588 30.3247 0.24913 30.5204C0.459954 30.7132 0.768325 30.7825 1.04838 30.6981C1.04838 30.6981 9.11635 28.5478 11.0264 27.9936C11.083 27.9846 11.1396 27.9726 11.1931 27.9515C11.7344 27.7527 12.3102 27.6413 12.9175 27.6413C13.8017 27.6413 14.623 27.8702 15.3373 28.2677C15.3656 28.2858 15.397 28.2978 15.4254 28.3099C15.4317 28.3129 15.438 28.3159 15.4442 28.3189C20.5198 30.6138 30.8313 35.553 30.8565 35.568H30.8628C30.8124 35.5439 30.8187 35.5469 30.9163 35.6072C30.9351 35.6192 30.954 35.6313 30.9698 35.6403C31.7344 36.0348 32.2504 36.7817 32.2504 37.6642C32.2504 38.128 32.1088 38.5496 31.8634 38.914C31.1554 39.9681 29.7835 40.191 28.5028 39.6007C28.4871 39.5946 28.4713 39.5886 28.4587 39.5796L27.9081 39.3658C27.6406 39.2513 27.3259 39.2875 27.0931 39.4591C26.8602 39.6278 26.7407 39.9079 26.7847 40.1849C26.8256 40.462 27.0239 40.6969 27.3008 40.7963L27.8483 41.0101L27.8042 40.9891C29.4248 41.7359 31.404 41.5673 32.6689 40.3867L33.5469 40.9619C33.7703 41.1095 34.0598 41.1366 34.3115 41.0372L47.5274 35.809L47.1907 35.1675C47.3826 35.5319 47.8357 35.6915 48.2259 35.5319C48.5154 35.4144 48.8301 35.3512 49.1668 35.3512C50.5104 35.3512 51.5834 36.3782 51.5834 37.6642C51.5834 38.5436 51.0705 39.2874 50.3153 39.685C49.9503 39.8747 49.7961 40.3054 49.9692 40.6728L49.6671 40.0223L33.786 48.0906C33.8112 48.0785 33.7891 48.0876 33.7514 48.0996C33.7136 48.1117 33.6759 48.1237 33.6413 48.1418C33.207 48.3406 32.7445 48.458 32.2504 48.458C31.7753 48.458 31.3285 48.3526 30.9131 48.1689C30.8942 48.1629 30.8754 48.1538 30.8565 48.1478C30.7967 48.1267 30.7873 48.1207 30.8282 48.1418L10.8155 40.0374C10.633 39.9651 10.4317 39.956 10.246 40.0163L0.579527 43.1002C0.157877 43.2358 -0.0718275 43.6725 0.069771 44.076C0.21137 44.4796 0.667633 44.6994 1.08928 44.5639L10.4663 41.5703L30.1799 49.5513C30.3027 49.6055 30.3278 49.6055 30.2995 49.5934C30.8879 49.8464 31.5487 50 32.2504 50C33.0088 50 33.7168 49.8193 34.3398 49.5302C34.387 49.5151 34.4311 49.5061 34.4908 49.476C34.5003 49.473 34.5097 49.4669 34.516 49.4639L51.0831 41.0493C51.2184 40.98 51.3285 40.8776 51.404 40.7511C52.4424 40.0584 53.1945 38.9712 53.1945 37.6642C53.1945 35.5439 51.382 33.8092 49.1668 33.8092C48.7262 33.8092 48.3172 33.9236 47.9207 34.0501H47.9175C47.8106 34.0501 47.7036 34.0682 47.606 34.1104L34.0975 39.4531L33.4336 39.0224C33.6192 38.5827 33.8615 38.1641 33.8615 37.6642C33.8615 36.2005 32.9899 34.9296 31.7344 34.282L31.791 34.3152C31.8193 34.3302 31.7659 34.282 31.6211 34.2067C31.6148 34.2037 31.6085 34.2007 31.5991 34.1977C31.5991 34.1977 21.2372 29.2284 16.1145 26.9155C16.1082 26.9125 16.1019 26.9094 16.0987 26.9064C16.0075 26.8703 16.0012 26.8703 16.0421 26.8854C15.117 26.3914 14.0534 26.0993 12.9175 26.0993ZM17.7507 36.1222C17.3071 36.1222 16.9452 36.4685 16.9452 36.8932C16.9452 37.3178 17.3071 37.6642 17.7507 37.6642C18.1944 37.6642 18.5563 37.3178 18.5563 36.8932C18.5563 36.4685 18.1944 36.1222 17.7507 36.1222ZM20.1673 36.8932C19.7237 36.8932 19.3618 37.2395 19.3618 37.6642C19.3618 38.0888 19.7237 38.4351 20.1673 38.4351C20.611 38.4351 20.9729 38.0888 20.9729 37.6642C20.9729 37.2395 20.611 36.8932 20.1673 36.8932ZM22.584 37.6642C22.1403 37.6642 21.7784 38.0105 21.7784 38.4351C21.7784 38.8598 22.1403 39.2061 22.584 39.2061C23.0276 39.2061 23.3895 38.8598 23.3895 38.4351C23.3895 38.0105 23.0276 37.6642 22.584 37.6642ZM25.0006 38.4351C24.5569 38.4351 24.195 38.7815 24.195 39.2061C24.195 39.6308 24.5569 39.9771 25.0006 39.9771C25.4443 39.9771 25.8061 39.6308 25.8061 39.2061C25.8061 38.7815 25.4443 38.4351 25.0006 38.4351Z" fill="#F06563"/>
</svg>
