<svg width="49" height="50" viewBox="0 0 49 50" fill="none" xmlns="http://www.w3.org/2000/svg">
<path d="M8.08871 0.0133763C7.91993 0.0337006 7.7444 0.0743484 7.57224 0.142095C6.88025 0.399531 6.53594 1.00925 6.53594 1.70026V5.34501L5.41187 4.21704C5.06756 3.87153 4.54773 3.87153 4.20342 4.21704C3.85911 4.56254 3.85911 5.08419 4.20342 5.4297L5.32748 6.55767H1.69536C1.00674 6.55767 0.399138 6.99125 0.142594 7.59758C-0.117326 8.20391 -0.0329362 8.98638 0.486903 9.50802L5.15195 14.1893C3.2515 17.6579 2.2152 21.6448 2.2152 25.635C2.2152 33.4394 6.10387 40.4647 11.9808 44.7124L9.30054 48.6146C9.04062 49.0482 9.12839 49.5698 9.47607 49.8306C9.64822 49.9153 9.82038 50 9.99253 50C10.2525 50 10.5124 49.9153 10.6845 49.6545L13.4491 45.7523C16.9935 47.9202 21.1387 49.1328 25.5472 49.1328C29.9557 49.1328 34.1009 47.9202 37.6453 45.7523L40.4099 49.6545C40.582 49.9153 40.842 50 41.1019 50C41.274 50 41.4462 49.9153 41.6183 49.8306C42.0504 49.5698 42.1382 49.0482 41.7939 48.6146L39.1137 44.7124C44.9905 40.4647 48.8792 33.4394 48.8792 25.635C48.8792 12.7158 38.4217 2.22191 25.5472 2.22191C21.5708 2.22191 17.5977 3.26181 14.1411 5.16887L9.47607 0.487601C9.0845 0.098059 8.59842 -0.047595 8.08871 0.0133763ZM8.26424 1.70026L13.7968 7.25207C14.1411 7.59758 14.3133 8.03115 14.3133 8.46473V13.0613L8.26424 6.99125V1.70026ZM25.5472 3.95621C37.4731 3.95621 47.1509 13.6676 47.1509 25.635C47.1509 37.6024 37.4731 47.3139 25.5472 47.3139C13.6213 47.3139 3.9435 37.6024 3.9435 25.635C3.9435 22.0784 4.80764 18.6131 6.45155 15.49C7.05578 15.9236 7.7444 16.0964 8.43639 16.0964H14.7453L24.8552 26.2414C25.0274 26.4141 25.2873 26.5022 25.4628 26.5022C25.635 26.5022 25.8915 26.4141 26.0637 26.2414C26.4114 25.8959 26.4114 25.3742 26.0637 25.0287L16.0416 14.8803V8.5528C16.0416 7.8584 15.7817 7.164 15.4373 6.55767C18.5496 4.82337 22.0028 3.95621 25.5472 3.95621ZM25.5472 7.42482C22.6948 7.42482 19.9302 8.11922 17.3378 9.33188C16.9057 9.50464 16.7336 10.0263 16.9901 10.4599C17.1656 10.8934 17.6855 11.0662 18.1176 10.8088C20.4501 9.68078 22.8704 9.07445 25.4628 9.07445C34.5364 9.07445 41.8816 16.4452 41.8816 25.5504C41.8816 34.6555 34.5364 42.0263 25.4628 42.0263C16.3893 42.0263 9.044 34.6555 9.044 25.5504C9.044 24.6832 9.12839 23.9007 9.21278 23.0336C9.30054 22.6 8.95623 22.0817 8.52416 22.0817C8.09208 21.9937 7.57224 22.3392 7.57224 22.7728C7.40009 23.6399 7.40009 24.5951 7.40009 25.4623C7.40009 35.5226 15.5217 43.6725 25.5472 43.6725C35.5727 43.6725 43.6943 35.5226 43.6943 25.4623C43.6943 15.402 35.5727 7.42482 25.5472 7.42482ZM1.69536 8.29198H7.0524L13.1014 14.362H8.52416C8.09208 14.362 7.66001 14.1893 7.3157 13.8438L1.69536 8.29198ZM25.5472 13.4949C23.6468 13.4949 21.6585 13.9285 19.9302 14.8803C19.4982 15.1411 19.326 15.6628 19.5826 16.0117C19.8425 16.4452 20.3623 16.618 20.71 16.3572C22.1784 15.5781 23.8189 15.1445 25.4628 15.1445C31.2519 15.2292 35.917 19.9105 35.917 25.635C35.917 29.5372 33.7566 33.0905 30.3 34.8248C29.8679 35.0856 29.6958 35.6073 29.9523 35.9562C30.1279 36.2136 30.3878 36.3898 30.7321 36.3898C30.9043 36.3898 30.992 36.3898 31.1642 36.3017C35.1406 34.3066 37.6453 30.1436 37.6453 25.635C37.6453 18.9586 32.2005 13.4949 25.5472 13.4949ZM10.1782 17.0685C9.84063 17.0617 9.51658 17.2243 9.38831 17.4818C9.12839 18.0915 8.78408 18.6978 8.61192 19.3041C8.352 19.7377 8.61192 20.1713 9.044 20.3474C9.12839 20.3474 9.21615 20.4321 9.38831 20.4321C9.73261 20.4321 10.0769 20.2594 10.1647 19.9139C10.3368 19.3922 10.5968 18.7859 10.8567 18.2642C11.0288 17.8307 10.8567 17.309 10.509 17.1363C10.401 17.0922 10.2896 17.0719 10.1782 17.0685ZM15.8795 19.1009C15.5386 19.0603 15.2011 19.2398 15.0053 19.565C14.8331 19.9985 15.0053 20.5202 15.3496 20.781L16.8213 21.6482C16.9935 21.7328 17.0779 21.7328 17.2534 21.7328C17.5099 21.7328 17.8576 21.5601 18.0298 21.2993C18.2897 20.8657 18.1176 20.344 17.6855 20.0832L16.2137 19.2161C16.1057 19.1517 15.9943 19.1145 15.8795 19.1009ZM25.5472 19.565C25.2029 19.565 24.8552 19.565 24.5109 19.6496C24.0788 19.7377 23.7311 20.1713 23.8189 20.6929C23.9067 21.1265 24.3354 21.472 24.8552 21.384C25.1151 21.384 25.375 21.2993 25.5472 21.2993C27.9675 21.2993 29.8679 23.2063 29.8679 25.635C29.8679 28.0637 27.9675 29.9708 25.5472 29.9708C23.1269 29.9708 21.2265 28.0637 21.2265 25.635C21.2265 25.3742 21.2265 25.1134 21.3109 24.9406C21.3986 24.5071 21.0543 23.9888 20.6222 23.9007C20.1024 23.8127 19.6703 24.1616 19.5826 24.5951C19.4982 24.9406 19.4982 25.2895 19.4982 25.635C19.4982 29.0156 22.1784 31.7051 25.5472 31.7051C28.916 31.7051 31.5962 29.0156 31.5962 25.635C31.5962 22.2545 28.916 19.565 25.5472 19.565ZM14.3133 24.7679C13.7934 24.7679 13.4491 25.1134 13.4491 25.635C13.4491 26.1567 13.7934 26.5022 14.3133 26.5022H16.0416C16.5614 26.5022 16.9057 26.1567 16.9057 25.635C16.9057 25.1134 16.5614 24.7679 16.0416 24.7679H14.3133ZM17.2028 29.544C17.0948 29.5542 16.9935 29.5813 16.9057 29.6219L15.4373 30.4891C15.0053 30.7499 14.9175 31.2715 15.093 31.7051C15.2652 31.9659 15.5251 32.1387 15.8694 32.1387C16.0416 32.1387 16.1293 32.1387 16.3015 32.054L17.7699 31.1868C18.2019 30.926 18.2897 30.4044 18.1176 29.9708C17.9218 29.6456 17.5336 29.5169 17.2028 29.544ZM20.8923 32.9753C20.5513 32.9347 20.2104 33.1142 20.0146 33.4394L19.1505 34.9129C18.9783 35.3465 19.0661 35.8681 19.4982 36.1256C19.6703 36.2136 19.7581 36.2136 19.9302 36.2136C20.1902 36.2136 20.5345 36.0409 20.71 35.78L21.5741 34.3066C21.8307 33.873 21.6585 33.3513 21.2265 33.0905C21.1184 33.0262 21.007 32.9889 20.8923 32.9753ZM25.5472 34.3066C25.0274 34.3066 24.6831 34.6521 24.6831 35.1737V36.908C24.6831 37.4297 25.0274 37.7752 25.5472 37.7752C26.067 37.7752 26.4114 37.4297 26.4114 36.908V35.1737C26.4114 34.6521 26.067 34.3066 25.5472 34.3066Z" fill="#F06563"/>
</svg>
