<svg id="Capa_1" data-name="Capa 1" xmlns="http://www.w3.org/2000/svg" width="60" height="85" viewBox="0 0 27.45 37.88"><path d="M24.9,12.27a.4.4,0,0,0,.18.13l-.3.19-.52-.68.08-.12A3.51,3.51,0,0,0,24.9,12.27Zm2.55,3.86a9,9,0,1,1-9-9A9,9,0,0,1,27.45,16.13Zm-15-5.59.23-.1s.75-.08.44-.55A8.19,8.19,0,0,0,12.45,10.54Zm1.24,6.58s-.12-.4-.73-.4c0,0-.36-.4-.69-.4,0,0-.12-1.11-.73-.87,0,0-.08-.44-.32-.4,0,0-.16-.44-.44-.32l-.32-.2-.08.13a8.26,8.26,0,0,0-.12,1.4,8.08,8.08,0,0,0,2.52,5.87.38.38,0,0,1,.06-.2.61.61,0,0,0,0-.6,1.2,1.2,0,0,0,.2-.64s-.2-.63.32-.71c0,0,.73,0,.36-1.27a1.06,1.06,0,0,1,.24-.71S14.22,17,13.69,17.12Zm.49-8a8.27,8.27,0,0,0-1,.74c.19,0,1,.07,1-.36Zm11,3.28a.73.73,0,0,0,.44-.06A8.1,8.1,0,0,0,19.15,8c-.65.63.15.9.15.9.28.2.89-.16.89-.16.24.28-.69.68-.69.68a2.06,2.06,0,0,0-.93.32c-.24-.36-.48-.08-.48-.08-.2.24.28.36.28.36.32.08.24.28.12.4s-.64,0-.64,0c-.28.16-.08.72-.08.72H18c.81.24.85-.36.85-.36.24,0,.32-.4.32-.4.2.2.69-.12.69-.12a1.27,1.27,0,0,0,.28.4c.36.12.44.28.44.28-.36.08,0,.24,0,.24.49-.2.12-.48.12-.48-.92-.44-.52-.56-.52-.56.16.28.81.4.81.4.08.52.32.6.32.6.28.12.36-.12.36-.12a.44.44,0,0,1-.32-.32c-.08-.24.28-.08.28-.08a1.23,1.23,0,0,0,1,.44c.44,0,.32.76.32.76-.48.32-1.41-.24-1.41-.24.08.28-.28.32-.28.32a.88.88,0,0,0-.93-.24c.12-.2-.08-.52-.08-.52a2,2,0,0,0-.84.08,5,5,0,0,1-1.17.2c-.36,0-.6.72-.6.72a1.44,1.44,0,0,0-.89,1.07,5.53,5.53,0,0,1-.08.87c-.28.44.52.91.52.91.49.91,1.09.52,1.09.52a3,3,0,0,0,1.53-.2c.12.4.68.28.68.28.2.12.12.52.12.52-.28.47.24.91.24.91.81.91.28,1.15.28,1.15a.77.77,0,0,0-.2,1,4.31,4.31,0,0,1,.4,1.62A1.7,1.7,0,0,0,23.16,20a.4.4,0,0,0,.44-.4.82.82,0,0,1,.28-.67,1.44,1.44,0,0,0,.52-1.31,2.05,2.05,0,0,1,.12-1,3.55,3.55,0,0,0,.73-2.18.57.57,0,0,1-.52,0,13.51,13.51,0,0,1-1.61-2.27c.85.36,1.53,2,1.53,2a1.36,1.36,0,0,0,.64-.68C25.77,13.12,25.26,12.54,25.13,12.41ZM18.42,26.6l.6,0v4h0A2.25,2.25,0,0,1,19,31s0,.08,0,.13a2,2,0,0,1-.08.27l-.07.14a2.26,2.26,0,0,1-.12.22l-.09.13-.15.19-.11.12-.19.15-.13.1-.23.12-.14.07-.31.1a2.16,2.16,0,0,1-.52.07H8.53L3.41,37.89V32.76H2.21A2.22,2.22,0,0,1,0,30.54V2.21A2.22,2.22,0,0,1,2.21,0h14.6a2.21,2.21,0,0,1,.44,0h0a2.08,2.08,0,0,1,.38.12l.11.05L18,.36l.12.09.2.16.1.11.16.19.09.12a1.78,1.78,0,0,1,.12.23l.06.13a1.88,1.88,0,0,1,.08.27s0,.08,0,.13a2.24,2.24,0,0,1,0,.42V5.69c-.2,0-.4,0-.6,0s-.62,0-.93,0V3.51H1.54V28.66l3.36,0v5.58l5.58-5.58,6.78,0h.23v-2.1C17.8,26.58,18.1,26.6,18.42,26.6ZM6.91,1.86a.27.27,0,0,0,.27.27h4.67a.27.27,0,1,0,0-.54H7.18A.27.27,0,0,0,6.91,1.86Z"/></svg>