<svg xmlns="http://www.w3.org/2000/svg" width="92" height="73" ><path d="M87.2.7H5.2a4,4,0,0,0-4,4v52a4,4,0,0,0,4,4H37.1a1,1,0,0,1,1,1.3l-2.3,7.8a2.44,2.44,0,0,0,.4,2.2,2.61,2.61,0,0,0,2,1h16a2.61,2.61,0,0,0,2-1,2.44,2.44,0,0,0,.4-2.2L54.3,62a1,1,0,0,1,1-1.3H87.2a4,4,0,0,0,4-4V4.7A4,4,0,0,0,87.2.7Zm-41,57a3,3,0,1,1,3-3A2.95,2.95,0,0,1,46.2,57.7Zm41-10.2a.94.94,0,0,1-1,1H6.2a.94.94,0,0,1-1-1V5.7a.94.94,0,0,1,1-1h80a.94.94,0,0,1,1,1Z"/><path d="M57.6,16.2,59,20.7a3.83,3.83,0,0,0-1.1.5c-.1.1-.5.5-.7,2.1a31,31,0,0,0-.2,4.3v.3c0,4.4-3.5,8-8.3,9v8.3H44V36.9c-4.7-.9-8.3-4.6-8.3-9v-.3a29.54,29.54,0,0,0-.2-4.2c-.2-1.6-.6-2.1-.7-2.1a2.26,2.26,0,0,0-1.1-.5l1.4-4.5a7,7,0,0,1,2.8,1.5c2.6,2.2,2.6,6.7,2.6,9.9V28c0,1.8,1.5,3.3,3.5,4V11.3h4.7V32c2-.7,3.5-2.3,3.5-4v-.3c0-3.3,0-7.7,2.6-9.9A6.25,6.25,0,0,1,57.6,16.2Z"/></svg>