<svg xmlns="http://www.w3.org/2000/svg" width="77px" height="77px" viewBox="0 0 32 40" x="0px" y="0px"><g data-name="Layer 3"><circle cx="25" cy="21" r="1"/><path d="M27,9a1,1,0,0,0,0-2H24.35L26,9Z"/><path d="M11.18,9l1.39-1.69A5.53,5.53,0,0,0,16,8.5a5.56,5.56,0,0,0,3.43-1.18L20.81,9h2.6L21.76,7h0L16,0,10.23,7h0L8.58,9h2.6ZM16,3.15l2.15,2.62a3.53,3.53,0,0,1-4.31,0Z"/><path d="M30,17V11H2A2,2,0,0,1,4,9H6L7.63,7H4a4,4,0,0,0-4,4V32H30V25h2V17ZM28,30H2V13H28v4H24.15a4.11,4.11,0,0,0-4.07,3.17A4,4,0,0,0,24,25h4Zm2-7H24.08a2,2,0,0,1-2-1.35A2,2,0,0,1,24,19h6Z"/></g></svg>