<svg id="Layer_1" data-name="Layer 1" xmlns="http://www.w3.org/2000/svg" width="79" height="84"><path d="M30.54,38h.4a13.11,13.11,0,0,0,10-4.3c5.5-6.2,4.6-16.8,4.5-17.8C44.84,3.69,35.94.79,30.74,1c-5.3-.2-14.2,2.8-14.7,14.9-.1,1-1,11.6,4.5,17.8C22.94,36.49,26.34,37.89,30.54,38Zm-10.8-21.8v-.1c.5-11.2,9.2-11.5,10.9-11.4h.1c1.7-.1,10.4.2,10.9,11.4v.1c0,.1,1,9.9-3.6,15a9.76,9.76,0,0,1-7.4,3.1h-.2a9.11,9.11,0,0,1-7.4-3.1C18.74,26.09,19.74,16.29,19.74,16.19Zm40.4,39.5a23.28,23.28,0,0,1-.7,6.4,2,2,0,0,1-1.7,1.2,1.7,1.7,0,0,1-.7-.1,1.93,1.93,0,0,1-1.1-2.4,15.35,15.35,0,0,0,.4-5v-.2c.2-2.7,0-7.3-3.8-8.2a42.76,42.76,0,0,1-13.1-6,2,2,0,0,1-.5-2.6,1.92,1.92,0,0,1,2.6-.5,41.58,41.58,0,0,0,11.9,5.4C58.14,44.89,60.54,49.29,60.14,55.69Zm-37.5-16.9a1.83,1.83,0,0,1-.5,2.6,42.76,42.76,0,0,1-13.1,6c-3.7.9-4,5.6-3.8,8.2v.2a18.35,18.35,0,0,0,.5,5,1.78,1.78,0,0,1-1.1,2.4,1.7,1.7,0,0,1-.7.1,1.71,1.71,0,0,1-1.7-1.2c-.7-1.8-.7-5.5-.7-6.4-.4-6.5,2-10.9,6.6-12A41.58,41.58,0,0,0,20,38.29,1.83,1.83,0,0,1,22.64,38.79Zm12.8.5a1.9,1.9,0,0,0-1.9,1.9,2.52,2.52,0,0,1-.9,2l-.3.3a2.46,2.46,0,0,1-1.5.5,2.69,2.69,0,0,1-2.7-2.7,1.9,1.9,0,0,0-1.9-1.9,1.84,1.84,0,0,0-1.9,1.9,6.28,6.28,0,0,0,1.4,4l-1.4,32a2,2,0,0,0,.6,1.5l4.4,4a1.94,1.94,0,0,0,2.6,0l4.5-4a2,2,0,0,0,.6-1.5l-1.4-31.6a6.13,6.13,0,0,0,1.7-4.3A2,2,0,0,0,35.44,39.29Zm-4.7,39.4-2.5-2.2,1.3-29a6.15,6.15,0,0,0,1.4.1,4.1,4.1,0,0,0,1.1-.1l1.3,28.9ZM81.34,55a2,2,0,0,1-1.9,1.8h-.1a2,2,0,0,1-1.8-2c.1-1.4.1-5.8-2.2-6.6-12.4-3.8-11.4-10.4-11.2-11.3h0v-.1h0a2,2,0,0,1,1.9-1.4,15.74,15.74,0,0,0,5.4-.9c-1.3-1.5-2.4-4.1-2-8.6.5-4.9-.2-8.7-1.8-10.3a3.17,3.17,0,0,0-3-.9A1.73,1.73,0,0,1,63,14c-.2-.2-1.9-2-5.6-.6h-.1c-1.6.6-5.2,2-5,10.8.1,4.9-.6,8.3-2.3,10.4a12.15,12.15,0,0,0,5.5.9h0a1.9,1.9,0,0,1,0,3.8h-.2c-7.4,0-9.9-3.3-10.1-3.7a1.86,1.86,0,0,1-.1-1.9,1.82,1.82,0,0,1,1.5-1c.2-.1,2.1-1.2,2-8.4-.3-11.5,5.5-13.7,7.4-14.4h.1c4.7-1.8,7.7-.1,9.1,1a6.79,6.79,0,0,1,5.1,2.1c3.2,3.2,3.3,9,2.9,13.4-.5,5.3,1.7,6.4,2,6.6a1.59,1.59,0,0,1,1.3,1.3,1.68,1.68,0,0,1-.5,1.8c-2.2,2.3-5.7,3-8,3.2.7,1.6,2.9,3.8,8.4,5.5C79.94,45.79,81.64,49.39,81.34,55Z"/></svg>