<svg id="Layer_1" data-name="Layer 1" xmlns="http://www.w3.org/2000/svg" width="59" height="81" viewBox="0 0 371.89 512"><path d="M186,276.67a50.82,50.82,0,0,0-35,87.7v45.88a35,35,0,0,0,69.91,0V364.37a50.82,50.82,0,0,0-35-87.7Zm18,69.89a24.21,24.21,0,0,0-7.63,17.53v46.16a10.35,10.35,0,1,1-20.69,0V364.09A24.21,24.21,0,0,0,168,346.56a26,26,0,0,1-8.23-19.08,26.2,26.2,0,0,1,52.4,0A26,26,0,0,1,204,346.56Z"/><path d="M335,209.88H298.07v-97.8a112.07,112.07,0,1,0-224.14,0v97.8H37A37,37,0,0,0,.11,246.79v228.3A37,37,0,0,0,37,512H335a37,37,0,0,0,36.91-36.91V246.79A37,37,0,0,0,335,209.88ZM98.54,112.07a87.46,87.46,0,1,1,174.93,0v97.8H98.54Zm248.75,363h0a12.32,12.32,0,0,1-12.3,12.3H37a12.32,12.32,0,0,1-12.3-12.3V246.79A12.32,12.32,0,0,1,37,234.48H335a12.32,12.32,0,0,1,12.3,12.3Z"/></svg>