<svg id="Layer_1" data-name="Layer 1" xmlns="http://www.w3.org/2000/svg" width="72" height="80" viewBox="0 0 80.01 88.18"><path d="M80,61.85V20a5.83,5.83,0,0,0-5.82-5.82h-3.5v4.8h3.5a1,1,0,0,1,1,1V62.87h0a1,1,0,0,1-1,1H5.81a1,1,0,0,1-1-1V20a1,1,0,0,1,1-1h4.84v-4.8H5.81A5.83,5.83,0,0,0,0,20V62.87s0,0,0,.07v7.78s0,.06,0,.09v.43s0,.06,0,.09v.11H0a5.13,5.13,0,0,0,5.12,4.93h26c0,1.15-.69,6.37-8.49,7.35h.25a2.23,2.23,0,0,0,0,4.46H57a2.23,2.23,0,1,0,0-4.46h.37c-7.8-1-8.44-6.2-8.49-7.35h26A5.13,5.13,0,0,0,80,71.44h0v-9.6ZM40,73.48a2.85,2.85,0,1,1,2.85-2.85A2.85,2.85,0,0,1,40,73.48ZM62.52,7.38h-13a3.83,3.83,0,0,0-3.82,3.82V39a3.83,3.83,0,0,0,3.82,3.82h13A3.83,3.83,0,0,0,66.34,39V11.19A3.83,3.83,0,0,0,62.52,7.38ZM56,41.17a1.91,1.91,0,1,1,1.91-1.91A1.91,1.91,0,0,1,56,41.17Zm6.9-5.11H49V14.22H62.9ZM50.81.85A4.26,4.26,0,0,0,48.25,0H19.14a4.28,4.28,0,0,0-4.28,4.28V29h0V48.87a4.27,4.27,0,0,0,1.46,3.22h0a4.29,4.29,0,0,0,1,.64h0l.17.08.05,0,.13,0,.08,0,.1,0,.1,0L18,53l.12,0h.06l.15,0h0a4.27,4.27,0,0,0,.78.07h29.1a4.35,4.35,0,0,0,.78-.07h0l.15,0h.06l.12,0,.08,0,.1,0,.1,0,.08,0,.13,0,.05,0,.17-.08h0a4.28,4.28,0,0,0,1-.64h0a4.27,4.27,0,0,0,1.46-3.22V46.4h0v-.56h-32A1.89,1.89,0,0,1,18.67,44V6.6a1.89,1.89,0,0,1,1.89-1.89h32V4.28A4.27,4.27,0,0,0,50.81.85ZM33.69,47.76a1.93,1.93,0,1,1-1.93,1.93A1.93,1.93,0,0,1,33.69,47.76Z"/></svg>