<svg xmlns="http://www.w3.org/2000/svg" width="16" height="16" fill="none"><path d="M12.4602 0.56066C13.0459 -0.0251263 13.9957 -0.0251263 14.5815 0.56066C15.1673 1.14645 15.1673 2.09619 14.5815 2.68198L2.56066 14.7028C1.97487 15.2886 1.02513 15.2886 0.43934 14.7028C-0.146447 14.117 -0.146447 13.1673 0.43934 12.5815L12.4602 0.56066Z"/><path d="M0.581475 2.56066C-0.0043112 1.97487 -0.0043112 1.02513 0.581475 0.43934C1.16726 -0.146447 2.11701 -0.146447 2.7028 0.43934L14.7236 12.4602C15.3094 13.0459 15.3094 13.9957 14.7236 14.5815C14.1378 15.1673 13.1881 15.1673 12.6023 14.5815L0.581475 2.56066Z"/></svg>