<svg xmlns="http://www.w3.org/2000/svg" width="23.2" height="19" viewBox="0 0 23.2 19"><title>email</title><path d="M20.13.06H3.07A3.07,3.07,0,0,0,0,3.13v12.8A3.07,3.07,0,0,0,3.07,19H20.13a3.07,3.07,0,0,0,3.07-3.07V3.13A3.07,3.07,0,0,0,20.13.06Zm1.2,15.87a1.2,1.2,0,0,1-1.2,1.2H3.07a1.2,1.2,0,0,1-1.2-1.2V3.13a1.2,1.2,0,0,1,1.2-1.2H20.13a1.2,1.2,0,0,1,1.2,1.2v12.8Z"/><path d="M23,2.6a.94.94,0,0,0-1.31-.23L11.6,9.45,1.48,2.37A.94.94,0,0,0,.4,3.9l10.66,7.46a.94.94,0,0,0,1.07,0L22.8,3.9A.94.94,0,0,0,23,2.6Z"/></svg>