<!DOCTYPE svg PUBLIC "-//W3C//DTD SVG 20010904//EN" "http://www.w3.org/TR/2001/REC-SVG-20010904/DTD/svg10.dtd">
<svg version="1.0" xmlns="http://www.w3.org/2000/svg" width="1600px" height="736px" viewBox="0 0 16000 7360" preserveAspectRatio="xMidYMid meet">
<g id="layer101" >
 <path d="M0 4310 l0 -3050 780 0 780 0 0 3050 0 3050 -780 0 -780 0 0 -3050z"/>
 <path d="M3330 3680 l0 -3680 1803 0 c1139 0 1834 4 1887 10 356 42 669 108 880 186 36 13 70 24 74 24 27 0 385 172 432 207 17 13 34 23 38 23 9 0 120 77 201 140 102 78 214 184 297 281 83 96 104 123 142 179 20 30 42 63 49 73 47 69 168 309 197 391 83 239 125 410 160 661 12 90 13 708 0 800 -41 298 -119 616 -191 772 -10 24 -19 46 -19 50 -1 27 -156 312 -220 404 -141 203 -367 434 -544 554 -16 11 -39 27 -51 35 -90 62 -245 149 -346 194 -46 21 -107 49 -136 62 -28 13 -58 24 -66 24 -8 0 -40 11 -71 25 -31 14 -73 29 -94 34 -20 5 -77 20 -127 34 -215 60 -507 106 -800 127 -71 5 -464 10 -872 10 l-743 0 0 1030 0 1030 -940 0 -940 0 0 -3680z m3228 119 c223 -12 380 -43 522 -104 73 -31 180 -87 204 -106 112 -88 216 -189 216 -208 0 -4 9 -16 20 -26 48 -44 128 -222 168 -375 26 -100 27 -116 27 -350 0 -233 -1 -250 -27 -345 -14 -55 -31 -113 -38 -130 -16 -41 -93 -199 -100 -205 -3 -3 -21 -25 -39 -50 -44 -58 -113 -125 -187 -181 -72 -55 -236 -136 -324 -161 -259 -73 -328 -78 -1123 -78 l-667 0 0 1165 0 1165 576 0 c317 0 664 -5 772 -11z"/>
 <path d="M11000 3680 l0 -3680 940 0 940 0 0 2895 0 2895 1560 0 1560 0 0 785 0 785 -2500 0 -2500 0 0 -3680z"/>
 </g>

</svg>