<svg xmlns="http://www.w3.org/2000/svg" width="24.19" height="28.01" viewBox="0 0 24.19 28.01"><title>person</title><path d="M11.12.18A4.49,4.49,0,0,0,8.79,1.33,4.49,4.49,0,0,0,5.72,3.06,9.27,9.27,0,0,0,4.13,9a14.34,14.34,0,0,0,1.35,5.09,4.58,4.58,0,0,1,.89,2,1,1,0,0,0,1.08.84,1,1,0,0,0,.81-1.11,6.43,6.43,0,0,0-1.1-2.63A6.69,6.69,0,0,1,6.6,11.8a1.52,1.52,0,0,0,.81.59A15.1,15.1,0,0,0,8.7,15a8.38,8.38,0,0,0,.79,1,3,3,0,0,1-.36.88c-.36.76-.94.83-1.56,1-2.22,1-3.43,1.21-4.6,2A5.22,5.22,0,0,0,.33,24.08h0v.11L0,26.95A1,1,0,0,0,1,28H23.24a1,1,0,0,0,.95-1.06c-.11-1-.22-1.91-.32-2.87h0a5.22,5.22,0,0,0-2.64-4.19,47.79,47.79,0,0,0-4.56-2.29,2.94,2.94,0,0,1-.65-.73,2.68,2.68,0,0,1-.42-1.24c.15-.18.29-.37.42-.57a1,1,0,0,0,1.8-.28l.17-1a9.46,9.46,0,0,1-.14,1.92,1,1,0,1,0,1.87.37,61.91,61.91,0,0,0,.34-7.47C19.86,4.81,17.22.08,13.39,0a15.47,15.47,0,0,0-2.27.18Zm2.27,1.73c3,.3,4.52,3.81,4.74,6.14a2.31,2.31,0,0,0-.5-.77,4.51,4.51,0,0,0-2.53-1.1c-1.83-.37-3.84-.6-5.16-2.06a1,1,0,0,0-1.48.08A9.54,9.54,0,0,0,6.53,8.06a1.28,1.28,0,0,0-.48.44A7.08,7.08,0,0,1,7.22,4.25a2.49,2.49,0,0,1,2-1.05A1,1,0,0,0,10,2.81a2.51,2.51,0,0,1,1.5-.76,10,10,0,0,1,1.89-.14Zm-4,4.24a12.18,12.18,0,0,0,5.27,1.9,3.75,3.75,0,0,1,1.55.57,1.61,1.61,0,0,1,0,1.29c-.35,2.18-1.94,5.68-3.88,5.66S8.91,12.09,8.55,9.93a3.29,3.29,0,0,1,.07-2.35,7.56,7.56,0,0,1,.82-1.43ZM14,17.08a5.15,5.15,0,0,0,.4.81,3.61,3.61,0,0,0,1.37,1.39,3.44,3.44,0,0,1-6.65.14,4.1,4.1,0,0,0,1.65-1.53,5.21,5.21,0,0,0,.34-.67,3.24,3.24,0,0,0,1.3.27A3.34,3.34,0,0,0,14,17.08Zm3.52,3a15.8,15.8,0,0,1,2.66,1.42A3.07,3.07,0,0,1,22,24.19c.07.63.14,1.28.21,1.91H2c.07-.63.14-1.29.21-1.91A3.07,3.07,0,0,1,4,21.47a25.19,25.19,0,0,1,3.29-1.41,5.47,5.47,0,0,0,5.09,3.75,5.47,5.47,0,0,0,5.09-3.76Z"/></svg>