<svg xmlns="http://www.w3.org/2000/svg" viewBox="0 0 80 80" width="80" height="80">
    <path d="M 38 4 C 30.832484 4 25 9.8324839 25 17 C 25 18.757779 25.367293 20.427548 26.001953 21.958984 C 18.259574 25.637507 12.366205 32.360392 10.066406 40.001953 A 1.0001 1.0001 0 0 0 10 40 C 8.3315161 40 7 38.668484 7 37 C 7 35.979619 7.5034034 35.090252 8.2734375 34.546875 A 1.0001 1.0001 0 0 0 7.6484375 32.722656 A 1.0001 1.0001 0 0 0 7.1191406 32.912109 C 5.8371748 33.816732 5 35.318381 5 37 C 5 39.600724 7.0138094 41.752975 9.5585938 41.978516 C 9.2045246 43.627559 9 45.30558 9 47 C 9 55.488467 13.796993 62.313544 21 66.455078 L 21 70 C 21 71.64497 22.35503 73 24 73 L 29 73 C 30.537284 73 31.723235 71.774886 31.884766 70.277344 C 34.180145 70.689432 36.533375 71 39 71 C 41.800691 71 44.485701 70.674168 47.060547 70.146484 C 47.149715 71.714052 48.411863 73 50 73 L 55 73 C 56.64497 73 58 71.64497 58 70 L 58 65.884766 C 62.291138 63.185799 65.596368 59.482985 67.410156 55 L 70 55 C 71.64497 55 73 53.64497 73 52 L 73 40 C 73 38.35503 71.64497 37 70 37 L 66.431641 37 C 65.398481 34.885349 64.07072 32.83835 62.501953 30.910156 L 70.570312 22.84375 L 69.554688 22.167969 C 69.554688 22.167969 67.338769 20.690506 64.117188 20.095703 C 63.311791 19.947002 62.434962 19.854764 61.509766 19.853516 C 58.90738 19.850016 55.920262 20.650006 53.027344 22.863281 C 52.113171 22.345545 51.173852 21.866603 50.210938 21.431641 C 50.714561 20.046021 51 18.556803 51 17 C 51 9.8324839 45.167516 4 38 4 z M 38 6 C 44.086484 6 49 10.913516 49 17 C 49 20.164337 47.659082 22.994188 45.525391 25 L 30.472656 25 C 28.340319 22.993105 27 20.163863 27 17 C 27 10.913516 31.913516 6 38 6 z M 38 8 A 1 1 0 0 0 37 9 A 1 1 0 0 0 38 10 A 1 1 0 0 0 39 9 A 1 1 0 0 0 38 8 z M 33.976562 9.0722656 A 1 1 0 0 0 33.5 9.2070312 A 1 1 0 0 0 33.132812 10.572266 A 1 1 0 0 0 34.5 10.9375 A 1 1 0 0 0 34.865234 9.5722656 A 1 1 0 0 0 33.976562 9.0722656 z M 41.951172 9.0742188 A 1 1 0 0 0 41.132812 9.5722656 A 1 1 0 0 0 41.5 10.939453 A 1 1 0 0 0 42.865234 10.572266 A 1 1 0 0 0 42.5 9.2070312 A 1 1 0 0 0 41.951172 9.0742188 z M 44.902344 12 A 1 1 0 0 0 44.427734 12.132812 A 1 1 0 0 0 44.060547 13.5 A 1 1 0 0 0 45.427734 13.865234 A 1 1 0 0 0 45.792969 12.5 A 1 1 0 0 0 44.902344 12 z M 31.025391 12.001953 A 1 1 0 0 0 30.205078 12.5 A 1 1 0 0 0 30.572266 13.865234 A 1 1 0 0 0 31.9375 13.5 A 1 1 0 0 0 31.572266 12.134766 A 1 1 0 0 0 31.025391 12.001953 z M 38 14 A 1 1 0 0 0 37 15 A 1 1 0 0 0 38 16 A 1 1 0 0 0 39 15 A 1 1 0 0 0 38 14 z M 30 16 A 1 1 0 0 0 29 17 A 1 1 0 0 0 30 18 A 1 1 0 0 0 31 17 A 1 1 0 0 0 30 16 z M 46 16 A 1 1 0 0 0 45 17 A 1 1 0 0 0 46 18 A 1 1 0 0 0 47 17 A 1 1 0 0 0 46 16 z M 38 18 A 1 1 0 0 0 37 19 A 1 1 0 0 0 38 20 A 1 1 0 0 0 39 19 A 1 1 0 0 0 38 18 z M 31.046875 20 A 1 1 0 0 0 30.570312 20.132812 A 1 1 0 0 0 30.205078 21.5 A 1 1 0 0 0 31.570312 21.865234 A 1 1 0 0 0 31.9375 20.5 A 1 1 0 0 0 31.046875 20 z M 44.880859 20.001953 A 1 1 0 0 0 44.0625 20.501953 A 1 1 0 0 0 44.427734 21.867188 A 1 1 0 0 0 45.792969 21.501953 A 1 1 0 0 0 45.427734 20.134766 A 1 1 0 0 0 44.880859 20.001953 z M 61.511719 21.841797 C 62.300385 21.848854 63.05224 21.932951 63.753906 22.0625 C 65.364627 22.359889 66.52194 22.836666 67.34375 23.242188 L 59.820312 30.763672 L 60 30.972656 A 1 1 0 0 0 60 31 A 1 1 0 0 0 60.845703 31.988281 C 62.520851 34.019207 63.914348 36.197586 64.9375 38.417969 L 65.205078 39 L 70 39 C 70.56503 39 71 39.43497 71 40 L 71 52 C 71 52.56503 70.56503 53 70 53 L 66.082031 53 L 65.841797 53.658203 C 64.207111 58.150268 60.916277 61.854713 56.486328 64.511719 L 56 64.802734 L 56 70 C 56 70.56503 55.56503 71 55 71 L 50 71 C 49.43497 71 49 70.56503 49 70 L 49 67.703125 L 47.769531 67.994141 C 45.013285 68.648676 42.066852 69 39 69 C 36.291723 69 33.677168 68.725795 31.203125 68.210938 L 30 67.958984 L 30 70 C 30 70.56503 29.56503 71 29 71 L 24 71 C 23.43497 71 23 70.56503 23 70 L 23 65.349609 L 22.478516 65.064453 C 15.462799 61.237084 11 54.952334 11 47 C 11 37.737531 17.185401 28.642429 26.240234 24.068359 C 26.092109 24.34764 26 24.661694 26 25 C 26 26.105 26.895 27 28 27 L 48 27 C 49.105 27 50 26.105 50 25 C 50 24.377941 49.710689 23.829639 49.265625 23.462891 C 49.306383 23.392005 49.341406 23.317812 49.380859 23.246094 C 50.479095 23.726857 51.552784 24.260079 52.580078 24.869141 L 53.191406 25.230469 L 53.734375 24.773438 C 56.443756 22.499034 59.14572 21.820626 61.511719 21.841797 z M 58 33 A 1 1 0 0 0 57 34 A 1 1 0 0 0 58 35 A 1 1 0 0 0 59 34 A 1 1 0 0 0 58 33 z M 55 36 A 1 1 0 0 0 54 37 A 1 1 0 0 0 55 38 A 1 1 0 0 0 56 37 A 1 1 0 0 0 55 36 z M 67 41 A 1 1 0 0 0 66 42 A 1 1 0 0 0 67 43 A 1 1 0 0 0 68 42 A 1 1 0 0 0 67 41 z M 67 45 A 1 1 0 0 0 66 46 A 1 1 0 0 0 67 47 A 1 1 0 0 0 68 46 A 1 1 0 0 0 67 45 z M 67 49 A 1 1 0 0 0 66 50 A 1 1 0 0 0 67 51 A 1 1 0 0 0 68 50 A 1 1 0 0 0 67 49 z M 31 60 A 1 1 0 0 0 30 61 A 1 1 0 0 0 31 62 A 1 1 0 0 0 32 61 A 1 1 0 0 0 31 60 z M 48 60 A 1 1 0 0 0 47 61 A 1 1 0 0 0 48 62 A 1 1 0 0 0 49 61 A 1 1 0 0 0 48 60 z M 31 64 A 1 1 0 0 0 30 65 A 1 1 0 0 0 31 66 A 1 1 0 0 0 32 65 A 1 1 0 0 0 31 64 z M 48 64 A 1 1 0 0 0 47 65 A 1 1 0 0 0 48 66 A 1 1 0 0 0 49 65 A 1 1 0 0 0 48 64 z"></path>
</svg>