<svg xmlns="http://www.w3.org/2000/svg" width="26.13" height="26.13" viewBox="0 0 26.13 26.13"><defs></defs><title>skype</title><path class="a" d="M8.54,2.81a5.23,5.23,0,0,1,2.9.85,6.85,6.85,0,0,1,1.62-.17,8.89,8.89,0,0,1,6.62,2.82,9.46,9.46,0,0,1,2.73,6.84,10.52,10.52,0,0,1-.21,2.05,6.1,6.1,0,0,1,.56,2.52,5.45,5.45,0,0,1-1.6,4,5.16,5.16,0,0,1-3.83,1.65,5.21,5.21,0,0,1-2.56-.69,12.15,12.15,0,0,1-1.71.17A9,9,0,0,1,6.42,20a9.42,9.42,0,0,1-2.76-6.83,9.09,9.09,0,0,1,.21-1.92,5.47,5.47,0,0,1-.77-2.86A5.43,5.43,0,0,1,4.69,4.43,5.16,5.16,0,0,1,8.54,2.81m4.4,14.78a3.09,3.09,0,0,1-1.37-.26,2.27,2.27,0,0,1-.77-.6c-.34-.63-.53-1-.56-1a2.15,2.15,0,0,0-.51-.85,1.51,1.51,0,0,0-.86-.3,1.33,1.33,0,0,0-1,.38,1.23,1.23,0,0,0-.38.9,3.32,3.32,0,0,0,.6,1.75A4.31,4.31,0,0,0,9.65,19a7.1,7.1,0,0,0,3.37.73A7.92,7.92,0,0,0,16,19.26a4.43,4.43,0,0,0,1.88-1.5,3.84,3.84,0,0,0,.64-2.14,4.17,4.17,0,0,0-.34-1.71,3.36,3.36,0,0,0-1.07-1.15A8.22,8.22,0,0,0,15.46,12c-1-.29-1.65-.47-2.05-.56-.2,0-.45-.08-.75-.15l-.58-.15a4.07,4.07,0,0,1-.73-.3,1.48,1.48,0,0,1-.56-.47.74.74,0,0,1-.21-.56,1.09,1.09,0,0,1,.6-.9,2.63,2.63,0,0,1,1.62-.43,2.65,2.65,0,0,1,1.58.38,2.91,2.91,0,0,1,.81,1.07,4.55,4.55,0,0,0,.56.77,1.3,1.3,0,0,0,.81.26,1.34,1.34,0,0,0,1-.43,1.26,1.26,0,0,0,.39-.94,3,3,0,0,0-.3-1.11,5.79,5.79,0,0,0-.9-1,5.4,5.4,0,0,0-1.58-.81A7.68,7.68,0,0,0,13,6.36a7.39,7.39,0,0,0-2.73.47A3.8,3.8,0,0,0,8.41,8.11a3.18,3.18,0,0,0-.64,2A3.17,3.17,0,0,0,8.37,12,4,4,0,0,0,10,13.19a11.48,11.48,0,0,0,2.48.77,5.79,5.79,0,0,1,.62.15l.64.17.45.11a2.6,2.6,0,0,1,1,.6,1.06,1.06,0,0,1,.38.9,1.41,1.41,0,0,1-.68,1.2,3.39,3.39,0,0,1-1.92.51M8.54,0A8,8,0,0,0,2.68,2.48,8.27,8.27,0,0,0,.31,8.36,8.36,8.36,0,0,0,1,11.66a11.44,11.44,0,0,0-.1,1.49,12.19,12.19,0,0,0,3.55,8.8,11.71,11.71,0,0,0,8.65,3.66,11.18,11.18,0,0,0,1.26-.08,7.89,7.89,0,0,0,3,.6,8,8,0,0,0,5.84-2.49,8.3,8.3,0,0,0,2.4-5.91,8.77,8.77,0,0,0-.47-2.81,12.86,12.86,0,0,0,.12-1.76A12.22,12.22,0,0,0,21.7,4.36,11.64,11.64,0,0,0,13.07.69q-.59,0-1.12.05A8,8,0,0,0,8.54,0Z"/></svg>