<svg xmlns="http://www.w3.org/2000/svg" width="96" height="92" viewBox="0 0 131 126"><title>bed</title><g id="layer101"><path d="M4,123c0-2.3-.4-3-2-3-1.9,0-2-.7-2-21.1V77.8L3,75l3-2.8V34.9l6.3.3c6,.3,6.2.4,6.2,3.1-.1,4,3.3,3.5,9.1-1.2C37.7,28.6,51.2,24,65.5,24s27.7,4.7,37.7,13.1c2.8,2.3,5.7,3.9,7.2,3.9,2.2,0,2.6-.4,2.6-3V35h12V72.2l3,2.8,3,2.8V98.9c0,20.4-.1,21.1-2,21.1-1.6,0-2,.7-2,3v3H112v-6H19v6H4Zm122.2-12,.4-4H4.4l.4,4,.4,4H125.8Zm0-20.2c-.2-7.3-.8-11.5-1.5-12-1.6-1-116.8-1-118.4,0-.7.5-1.3,4.7-1.5,12L4.5,102h122ZM13,56.5C13,46.2,12.6,40,12,40s-1,6.2-1,16.5S11.4,73,12,73,13,66.8,13,56.5ZM25,68V63H60V73H71V63h35V73h7V46h-3.6c-2.6,0-4.7-1-8.2-3.9A51.66,51.66,0,0,0,79.5,31a52.83,52.83,0,0,0-27.9,0A52,52,0,0,0,29.5,42.2C26.3,45,24.3,46,21.8,46H18.5V73h3.3C25,73,25,73,25,68Zm30,3c0-1.9-.7-2-12.5-2S30,69.1,30,71s.7,2,12.5,2S55,72.9,55,71Zm46,0c0-1.9-.7-2-12.5-2S76,69.1,76,71s.7,2,12.5,2S101,72.9,101,71Zm19-14.5c0-10.3-.4-16.5-1-16.5s-1,6.2-1,16.5.4,16.5,1,16.5S120,66.8,120,56.5Z"/><path d="M59.7,56.9c-9.4-8.3-11-13.8-5.7-19.1,2.7-2.6,3.6-2.9,6.8-2.4,2,.3,4.2.6,4.7.6s2.7-.3,4.7-.6c3.2-.5,4.1-.2,6.8,2.4,5.9,5.9,3.4,11.8-9.6,22.5C65.4,61.9,65.2,61.8,59.7,56.9Zm13.5-9.4c2.2-2.8,2.3-4.8.3-6.5s-5-.4-6.4,2.8c-1.2,2.6-1.3,2.6-2.7.7A6.64,6.64,0,0,1,63,41.9c0-1.4-4.1-2.1-5.5-.9-2.5,2.1-1.7,4.4,3.1,9.3l4.7,4.6,3-2.5A37.67,37.67,0,0,0,73.2,47.5Z"/><path d="M23,21.5c-2.8-3-1.5-5.3,3-5.1,4.7.2,5.8,2.1,3,5.1S25.9,24.6,23,21.5Z"/><path d="M97.5,20c-2.8-2.9-2.8-3-.9-4.4,1.1-.9,2.3-1.1,3-.5a1.42,1.42,0,0,0,2-.1c.5-.5,1.7-.3,2.9.6,1.9,1.4,1.9,1.5-1.1,4.4l-3,3Z"/><path d="M71,5.5c-2.8-3-1.5-5.3,3-5.1,4.7.2,5.8,2.1,3,5.1S73.9,8.6,71,5.5Z"/></g></svg>