<svg id="Layer_1" data-name="Layer 1" xmlns="http://www.w3.org/2000/svg" width="94" height="70" viewBox="0 0 126 95"><title>calendar</title><g id="layer101"><path d="M0,49.5V4H3.5C6.3,4,7,3.6,7,2s.7-2,2.5-2S12,.5,12,2c0,1.1.7,2,1.5,2S15,3.1,15,2c0-1.5.7-2,2.5-2S20,.5,20,2c0,1.1.7,2,1.5,2S23,3.1,23,2c0-1.5.7-2,2.5-2S28,.5,28,2a1.77,1.77,0,0,0,1.9,2c1.4,0,1.8-.5,1.4-2-.5-1.7,0-2,2.7-2s3.2.3,2.7,2c-.4,1.5,0,2,1.4,2A1.77,1.77,0,0,0,40,2c0-1.5.7-2,2.5-2S45,.5,45,2c0,1.1.7,2,1.5,2S48,3.1,48,2c0-1.5.7-2,2.5-2S53,.5,53,2c0,1.1.7,2,1.5,2S56,3.1,56,2c0-1.5.7-2,2.5-2S61,.5,61,2a1.77,1.77,0,0,0,1.9,2c1.4,0,1.8-.5,1.4-2-.5-1.7,0-2,2.7-2s3.2.3,2.7,2c-.4,1.5,0,2,1.4,2A1.77,1.77,0,0,0,73,2c0-1.5.7-2,2.5-2S78,.5,78,2c0,1.1.7,2,1.5,2S81,3.1,81,2c0-1.5.7-2,2.5-2S86,.5,86,2c0,1.1.7,2,1.5,2S89,3.1,89,2c0-1.5.7-2,2.5-2S94,.5,94,2a1.77,1.77,0,0,0,1.9,2c1.4,0,1.8-.5,1.4-2s0-2,2.1-2c1.9,0,2.6.5,2.6,2a2,2,0,0,0,4,0c0-1.5.7-2,2.5-2s2.5.5,2.5,2c0,1.1.7,2,1.5,2s1.5-.9,1.5-2c0-1.5.7-2,2.5-2s2.5.5,2.5,2,.7,2,3.5,2H126V95H0ZM122,58V26H4V90H122Zm-1-43c0-3.3-.4-6-1-6s-1,.9-1,2c0,1.5-.7,2-2.5,2s-2.5-.5-2.5-2c0-1.1-.7-2-1.5-2s-1.5.9-1.5,2c0,1.5-.7,2-2.5,2s-2.5-.5-2.5-2a2,2,0,0,0-4,0c0,1.5-.7,2-2.6,2-2.1,0-2.5-.4-2.1-2s0-2-1.4-2A1.77,1.77,0,0,0,94,11c0,1.5-.7,2-2.5,2S89,12.5,89,11c0-1.1-.7-2-1.5-2S86,9.9,86,11c0,1.5-.7,2-2.5,2S81,12.5,81,11c0-1.1-.7-2-1.5-2S78,9.9,78,11c0,1.5-.7,2-2.5,2S73,12.5,73,11a1.77,1.77,0,0,0-1.9-2c-1.4,0-1.8.5-1.4,2,.5,1.7,0,2-2.7,2s-3.2-.3-2.7-2c.4-1.5,0-2-1.4-2A1.77,1.77,0,0,0,61,11c0,1.5-.7,2-2.5,2S56,12.5,56,11c0-1.1-.7-2-1.5-2S53,9.9,53,11c0,1.5-.7,2-2.5,2S48,12.5,48,11c0-1.1-.7-2-1.5-2S45,9.9,45,11c0,1.5-.7,2-2.5,2S40,12.5,40,11a1.77,1.77,0,0,0-1.9-2c-1.4,0-1.8.5-1.4,2,.5,1.7,0,2-2.7,2s-3.2-.3-2.7-2c.4-1.5,0-2-1.4-2A1.77,1.77,0,0,0,28,11c0,1.5-.7,2-2.5,2S23,12.5,23,11c0-1.1-.7-2-1.5-2S20,9.9,20,11c0,1.5-.7,2-2.5,2S15,12.5,15,11c0-1.1-.7-2-1.5-2S12,9.9,12,11c0,1.5-.7,2-2.5,2S7,12.5,7,11c0-1.1-.7-2-1.5-2C4.3,9,4,10.3,4,15v6H121Z"/><path d="M9,81.5c0-2.4.2-2.5,7-2.5s7,.1,7,2.5S22.8,84,16,84,9,83.9,9,81.5Z"/><path d="M28,81.5c0-2.4.2-2.5,7-2.5s7,.1,7,2.5S41.8,84,35,84,28,83.9,28,81.5Z"/><path d="M47,81.5c0-2.4.2-2.5,7-2.5s7,.1,7,2.5S60.8,84,54,84,47,83.9,47,81.5Z"/><path d="M65,81.5c0-2.4.2-2.5,7-2.5s7,.1,7,2.5S78.8,84,72,84,65,83.9,65,81.5Z"/><path d="M84,81.5c0-2.4.2-2.5,7-2.5s7,.1,7,2.5S97.8,84,91,84,84,83.9,84,81.5Z"/><path d="M103,81.5c0-2.4.2-2.5,7-2.5s7,.1,7,2.5-.2,2.5-7,2.5S103,83.9,103,81.5Z"/><path d="M9,66.5c0-2.4.2-2.5,7-2.5s7,.1,7,2.5S22.8,69,16,69,9,68.9,9,66.5Z"/><path d="M28,66.5c0-2.4.2-2.5,7-2.5s7,.1,7,2.5S41.8,69,35,69,28,68.9,28,66.5Z"/><path d="M47,66.5c0-2.4.2-2.5,7-2.5s7,.1,7,2.5S60.8,69,54,69,47,68.9,47,66.5Z"/><path d="M65,66.5c0-2.4.2-2.5,7-2.5s7,.1,7,2.5S78.8,69,72,69,65,68.9,65,66.5Z"/><path d="M84,66.5c0-2.4.2-2.5,7-2.5s7,.1,7,2.5S97.8,69,91,69,84,68.9,84,66.5Z"/><path d="M103,66.5c0-2.4.2-2.5,7-2.5s7,.1,7,2.5-.2,2.5-7,2.5S103,68.9,103,66.5Z"/><path d="M86.2,55.7c-3.1-3.1-4.2-5.1-4.2-7.3,0-4.5,2.5-6.2,9.3-6.2,6.6,0,9.7,2,9.7,6.3,0,2.7-7.3,11.5-9.4,11.5C90.9,60,88.5,58.1,86.2,55.7ZM96,48.3c0-1.6-.5-1.6-3.2-.2-1.4.8-2.3.8-3.1,0-3.1-3.1-3.6.3-.5,3.6L91.4,54l2.3-2.2C95,50.6,96,49.1,96,48.3Z"/><path d="M9,51V48H23.1l-.3,2.8c-.3,2.6-.5,2.7-7,3L9,54.1Z"/><path d="M28,51V48H42.1l-.3,2.8c-.3,2.6-.5,2.7-7,3l-6.8.3Z"/><path d="M47,51V48H61.1l-.3,2.8c-.3,2.6-.5,2.7-7,3l-6.8.3Z"/><path d="M65.7,53.3c-.4-.3-.7-1.7-.7-3,0-2.2.3-2.3,7-2.3h7v6H72.7C69.2,54,66,53.7,65.7,53.3Z"/><path d="M103.7,53.3c-.4-.3-.7-1.7-.7-3,0-2.2.3-2.3,7-2.3h7v6h-6.3C107.2,54,104,53.7,103.7,53.3Z"/><path d="M9,35.5c0-2.4.2-2.5,7-2.5s7,.1,7,2.5S22.8,38,16,38,9,37.9,9,35.5Z"/><path d="M28,35.5c0-2.4.2-2.5,7-2.5s7,.1,7,2.5S41.8,38,35,38,28,37.9,28,35.5Z"/><path d="M47,35.5c0-2.4.2-2.5,7-2.5s7,.1,7,2.5S60.8,38,54,38,47,37.9,47,35.5Z"/><path d="M65,35.5c0-2.4.2-2.5,7-2.5s7,.1,7,2.5S78.8,38,72,38,65,37.9,65,35.5Z"/><path d="M84,35.5c0-2.4.2-2.5,7-2.5s7,.1,7,2.5S97.8,38,91,38,84,37.9,84,35.5Z"/><path d="M103,35.5c0-2.4.2-2.5,7-2.5s7,.1,7,2.5-.2,2.5-7,2.5S103,37.9,103,35.5Z"/></g></svg>