<svg xmlns="http://www.w3.org/2000/svg" width="81.33" height="81.24" viewBox="0 0 81.33 81.24"><title>love</title><path d="M76.88,22.57a15,15,0,0,0-20.26-.9,15,15,0,0,0-16-2.1,15,15,0,0,0-16,2.1A15,15,0,0,0,4.44,43.8L24.7,64.06l16-16,16,16L76.88,43.8A15,15,0,0,0,76.88,22.57ZM24.7,57.33,7.81,40.44a10.26,10.26,0,0,1,14.5-14.5l2.38,2.38,2.38-2.38A10.26,10.26,0,0,1,41.63,40.38l-.05.05ZM73.52,40.44,56.63,57.33,44,44.73,45,43.8A15,15,0,0,0,45.41,23a10.27,10.27,0,0,1,8.83,2.88l2.38,2.38L59,25.93A10.26,10.26,0,1,1,73.56,40.38l-.05.05Z"/><rect x="38.28" y="71.94" width="4.76" height="9.3"/><rect x="38.28" width="4.76" height="9.3"/><rect x="52.05" y="69.2" width="4.76" height="9.3" transform="translate(-24.12 26.45) rotate(-22.5)"/><rect x="24.52" y="2.74" width="4.76" height="9.3" transform="translate(-0.78 10.86) rotate(-22.5)"/><rect x="22.25" y="71.47" width="9.3" height="4.76" transform="translate(-51.62 70.44) rotate(-67.5)"/><rect x="49.78" y="5.01" width="9.3" height="4.76" transform="translate(26.77 54.85) rotate(-67.5)"/></svg>