<svg xmlns="http://www.w3.org/2000/svg" width="77" height="64" viewBox="0 0 300 253"><path d="M278.7,11.6,274,6.8l-6,2.8c-44,20.6-75.9,41.3-100.1,65.5-23,22.8-37.5,47.1-51.6,72-.3.6-2.1,1.5-5.9,2.1-5.1.7-12.1.5-19.5.2-16.4-.5-35-1.2-49.6,7.4C22.3,168,13,188.5,13,219.6V226l6,2.3c1.7.6,41.9,15.7,86.8,15.7,24.5,0,39.1-3.2,50.2-11.1,11.4-8.1,18.2-20.1,26.8-39.5,14-31.7,26.7-52.2,39-65.5,12.2,28.3,15.1,84.9,15.1,106.8V244h35.7l.4-8.9c2.5-57.4,11.4-91.5,17.9-116.5,4.6-17.6,8.2-31.5,8.2-46.7C299.2,33.2,279.5,12.5,278.7,11.6Zm-5.8,102.3c-6.1,23.4-14.3,54.8-17.7,105-.4-9.2-1.1-21.6-2.5-34.9-3.2-30.9-8.7-53.9-16.3-68.7,12.5-8.3,25.1-10.7,39-11.3C274.7,107.2,273.8,110.5,272.9,113.9Zm6.5-28.7c-19,.4-39,3.5-57.9,17.8-19.6,14.8-37.3,41.2-55.8,82.8-7.2,16.3-12.6,26.2-20.5,31.8-7.7,5.4-19.1,7.7-39.4,7.7-31.6,0-61.5-8.4-74-12.4.6-10.2,2.4-18.8,5.6-25.4a32.29,32.29,0,0,1,13.3-14.7c9.9-5.8,25.7-5.3,39.6-4.8,18,.6,34.9,1.2,42.2-11.8,13.9-24.7,27.2-46.8,48.5-68s49.6-40,88.1-58.5c4.5,7,11.4,21.1,11.4,42.1A86.5,86.5,0,0,1,279.4,85.2Z"/><path d="M90.5,7.3c-6.7.1-13.1,3.2-19,9.3a26.72,26.72,0,0,0-4.2,6,30.48,30.48,0,0,0-2.4,7.2c-.5,2.5-.8,4.7-1,6.6a56.33,56.33,0,0,0-.3,5.8,37.7,37.7,0,0,0-5.8.4c-1.9.2-4.1.6-6.6,1.1a26.38,26.38,0,0,0-7.1,2.6,21.9,21.9,0,0,0-5.9,4.3c-6,6.1-8.9,12.5-9,19.2s3,13,8.9,18.9a23.52,23.52,0,0,0,6.5,4.5,36.8,36.8,0,0,0,7,2.7A49.27,49.27,0,0,0,58.3,97c2.3.2,3.9.4,4.9.4a12.84,12.84,0,0,0,2.2-.1L114.7,96a3.41,3.41,0,0,0,2.5-1.1,3.32,3.32,0,0,0,1-2.5l.5-49.2c-.1-12.3-3.2-21.4-9.1-27.3S97.3,7.2,90.5,7.3Z"/></svg>