<svg xmlns="http://www.w3.org/2000/svg" width="68" height="69" viewBox="0 0 438.53 438.53"><path d="M409.13,109.21a218.35,218.35,0,0,0-79.8-79.8Q278.93,0,219.27,0T109.21,29.41a218.29,218.29,0,0,0-79.8,79.8Q0,159.6,0,219.27T29.41,329.33a218.35,218.35,0,0,0,79.8,79.8q50.4,29.4,110.06,29.4t110.07-29.4a218.34,218.34,0,0,0,79.8-79.8q29.4-50.4,29.4-110.06T409.13,109.21Zm-21.7,181q-14.56,33.83-39,58.24t-58.24,39a180.09,180.09,0,0,1-141.89,0,184.57,184.57,0,0,1-58.24-39q-24.4-24.41-39-58.24a180.11,180.11,0,0,1,0-141.89,184.58,184.58,0,0,1,39-58.24q24.41-24.4,58.24-39a180.16,180.16,0,0,1,141.89,0,184.56,184.56,0,0,1,58.24,39q24.41,24.41,39,58.24a180.09,180.09,0,0,1,0,141.89Z"/><path d="M312.06,247.53a17.93,17.93,0,0,0-14,1.14,17.27,17.27,0,0,0-9.13,10.85,72.86,72.86,0,0,1-69.67,51.11,72.86,72.86,0,0,1-69.66-51.11,18,18,0,0,0-22.84-12,18,18,0,0,0-12,22.83A105.41,105.41,0,0,0,154.18,326q28.84,21.13,65.1,21.12T284.37,326a105.51,105.51,0,0,0,39.39-55.68,18.17,18.17,0,0,0-11.7-22.83Z"/><path d="M146.18,182.73a36.56,36.56,0,0,0,36.55-36.55,36.56,36.56,0,0,0-36.55-36.55,36.56,36.56,0,0,0-36.55,36.55,36.56,36.56,0,0,0,36.55,36.55Z"/><path d="M292.36,109.63a36.56,36.56,0,0,0-36.55,36.55,36.55,36.55,0,1,0,62.39-25.84A35.22,35.22,0,0,0,292.36,109.63Z"/></svg>