<svg xmlns="http://www.w3.org/2000/svg" width="14.11" height="27.24" viewBox="0 0 14.11 27.24"><title>dollar</title><path d="M13.91,16.63a5.47,5.47,0,0,0-.48-1.16,3.92,3.92,0,0,0-.8-1,9.58,9.58,0,0,0-.94-.76,9.15,9.15,0,0,0-1.14-.64q-.73-.36-1.15-.53L8.17,12.1l-1.06-.42-.92-.41a5.34,5.34,0,0,1-.85-.47,6.66,6.66,0,0,1-.6-.5,1.7,1.7,0,0,1-.45-.63,2,2,0,0,1,.78-2.41,3.94,3.94,0,0,1,2.35-.65,5,5,0,0,1,1.29.17,6.77,6.77,0,0,1,1.13.39,7.83,7.83,0,0,1,.89.48q.42.27.59.4l.22.18a.48.48,0,0,0,.41.11.41.41,0,0,0,.35-.24l1.23-2.21a.44.44,0,0,0-.08-.58l-.23-.21q-.14-.12-.59-.44a7.31,7.31,0,0,0-1-.57,9.72,9.72,0,0,0-1.32-.51,8.4,8.4,0,0,0-1.67-.35V.59A.47.47,0,0,0,8.2.11h-2a.47.47,0,0,0-.34.14.47.47,0,0,0-.14.34V3.32a6.93,6.93,0,0,0-3.86,2A5.18,5.18,0,0,0,.33,9a5.26,5.26,0,0,0,.13,1.18,6,6,0,0,0,.32,1,3.71,3.71,0,0,0,.54.88,9.41,9.41,0,0,0,.66.74,5.35,5.35,0,0,0,.81.64q.5.33.86.54t.95.47l.93.4.93.38,1.21.49q.39.17,1,.48a4.15,4.15,0,0,1,.89.57,2.85,2.85,0,0,1,.51.64,1.53,1.53,0,0,1,.23.8,2.12,2.12,0,0,1-.93,1.85,3.67,3.67,0,0,1-2.16.65,5.29,5.29,0,0,1-1.12-.12,7.91,7.91,0,0,1-3.68-1.89l0,0A.38.38,0,0,0,2,18.55a.47.47,0,0,0-.35.18l-1.56,2a.46.46,0,0,0,0,.62l.26.27a8.76,8.76,0,0,0,.7.57A10.2,10.2,0,0,0,2.2,23a10.18,10.18,0,0,0,1.54.67,9.56,9.56,0,0,0,1.93.47v2.65a.49.49,0,0,0,.48.48h2a.47.47,0,0,0,.48-.48V24.11A6.5,6.5,0,0,0,12.6,22a5.76,5.76,0,0,0,1.51-4A5,5,0,0,0,13.91,16.63Z"/></svg>