<svg width="75" height="76" viewBox="0 0 75 76" xmlns="http://www.w3.org/2000/svg">
<path d="M36.3971 0C28.4917 0 22.0588 6.42419 22.0588 14.3188C22.0588 16.2549 22.4639 18.0941 23.1639 19.7809C14.6245 23.8326 8.12449 31.2375 5.58795 39.6543C5.56356 39.6528 5.53914 39.6521 5.51471 39.6522C3.67447 39.6522 2.20588 38.1856 2.20588 36.3478C2.20588 35.2239 2.76111 34.2443 3.61041 33.6458C3.80985 33.5099 3.9591 33.3123 4.03526 33.0835C4.11141 32.8546 4.11027 32.6071 4.03201 32.379C3.95374 32.1509 3.80267 31.9547 3.60199 31.8206C3.40131 31.6865 3.1621 31.6218 2.92107 31.6365C2.7105 31.6489 2.5079 31.7214 2.33729 31.8452C0.923355 32.8416 0 34.4956 0 36.3478C0 39.2124 2.22111 41.583 5.02786 41.8314C4.63734 43.6477 4.41176 45.496 4.41176 47.3623C4.41176 56.7119 9.70257 64.2294 17.6471 68.7911V72.6956C17.6471 74.5075 19.1416 76 20.9559 76H26.4706C28.1661 76 29.4742 74.6506 29.6523 73.0011C32.184 73.455 34.7795 73.7971 37.5 73.7971C40.589 73.7971 43.5504 73.4382 46.3903 72.857C46.4887 74.5836 47.8807 76 49.6324 76H55.1471C56.9614 76 58.4559 74.5075 58.4559 72.6956V68.1629C63.1888 65.1902 66.8342 61.1117 68.8347 56.1739H71.6912C73.5055 56.1739 75 54.6814 75 52.8696V39.6522C75 37.8403 73.5055 36.3478 71.6912 36.3478H67.7555C66.616 34.0186 65.1515 31.764 63.4213 29.6402L72.3202 20.7554L71.2 20.0111C71.2 20.0111 68.756 18.3837 65.2028 17.7286C64.3145 17.5648 63.3474 17.4632 62.3269 17.4618C59.4567 17.458 56.162 18.3391 52.9713 20.7769C51.9631 20.2067 50.927 19.6792 49.865 19.2001C50.4205 17.6739 50.7353 16.0336 50.7353 14.3188C50.7353 6.42419 44.3024 0 36.3971 0ZM36.3971 2.2029C43.1101 2.2029 48.5294 7.61489 48.5294 14.3188C48.5294 17.8042 47.0505 20.9211 44.6971 23.1304H28.0948C25.743 20.9199 24.2647 17.8037 24.2647 14.3188C24.2647 7.61489 29.684 2.2029 36.3971 2.2029ZM36.3971 4.4058C36.1045 4.4058 35.824 4.52184 35.6172 4.7284C35.4103 4.93497 35.2941 5.21512 35.2941 5.50725C35.2941 5.79937 35.4103 6.07953 35.6172 6.28609C35.824 6.49265 36.1045 6.6087 36.3971 6.6087C36.6896 6.6087 36.9701 6.49265 37.177 6.28609C37.3838 6.07953 37.5 5.79937 37.5 5.50725C37.5 5.21512 37.3838 4.93497 37.177 4.7284C36.9701 4.52184 36.6896 4.4058 36.3971 4.4058ZM31.9594 5.58684C31.7745 5.59153 31.5938 5.64257 31.4338 5.73528C31.1805 5.88112 30.9956 6.12145 30.9196 6.40343C30.8437 6.6854 30.883 6.98596 31.0288 7.23902C31.1013 7.36438 31.1979 7.47424 31.3129 7.56232C31.4279 7.6504 31.5592 7.71496 31.6993 7.75233C31.8393 7.78969 31.9854 7.79912 32.1291 7.78007C32.2728 7.76102 32.4113 7.71386 32.5368 7.6413C32.7897 7.4951 32.9742 7.25462 33.0497 6.97267C33.1253 6.69073 33.0857 6.39037 32.9396 6.13757C32.8407 5.96641 32.6975 5.82497 32.5251 5.72807C32.3526 5.63118 32.1573 5.5824 31.9594 5.58684ZM40.755 5.58899C40.5706 5.59769 40.3913 5.65247 40.2336 5.74832C40.0759 5.84416 39.9448 5.978 39.8524 6.13757C39.7798 6.26296 39.7327 6.40142 39.7138 6.54502C39.6949 6.68861 39.7045 6.83452 39.7421 6.97439C39.7797 7.11427 39.8446 7.24536 39.933 7.36017C40.0214 7.47497 40.1316 7.57124 40.2574 7.64346C40.5108 7.78913 40.8117 7.82837 41.0941 7.75253C41.3764 7.67669 41.6171 7.49198 41.7631 7.23902C41.9092 6.98622 41.9488 6.68586 41.8733 6.40391C41.7977 6.12197 41.6132 5.88148 41.3603 5.73528C41.1768 5.62946 40.9666 5.57867 40.755 5.58899ZM44.0099 8.81159C43.826 8.81598 43.646 8.86627 43.4865 8.95788C43.3608 9.0301 43.2505 9.12636 43.1621 9.24117C43.0737 9.35598 43.0088 9.48707 42.9712 9.62694C42.9336 9.76682 42.924 9.91273 42.9429 10.0563C42.9618 10.1999 43.0089 10.3384 43.0815 10.4638C43.154 10.5891 43.2505 10.699 43.3656 10.7871C43.4806 10.8751 43.6119 10.9397 43.7519 10.9771C43.892 11.0144 44.038 11.0239 44.1817 11.0048C44.3254 10.9858 44.464 10.9386 44.5894 10.8661C44.8424 10.7199 45.0269 10.4794 45.1024 10.1974C45.1779 9.91548 45.1383 9.61512 44.9922 9.36232C44.8932 9.19083 44.7497 9.04918 44.5768 8.95227C44.4039 8.85535 44.2081 8.80676 44.0099 8.81159ZM28.7045 8.81375C28.5197 8.82209 28.34 8.8767 28.1819 8.97256C28.0238 9.06843 27.8924 9.20245 27.7997 9.36232C27.6538 9.61538 27.6146 9.91593 27.6905 10.1979C27.7664 10.4799 27.9514 10.7202 28.2047 10.8661C28.4578 11.0119 28.7586 11.0515 29.0409 10.976C29.3233 10.9006 29.5641 10.7164 29.7105 10.4638C29.8565 10.211 29.8961 9.91061 29.8206 9.62866C29.7451 9.34672 29.5606 9.10624 29.3076 8.96003C29.1248 8.85461 28.9154 8.80384 28.7045 8.81375ZM36.3971 11.0145C36.1045 11.0145 35.824 11.1305 35.6172 11.3371C35.4103 11.5437 35.2941 11.8238 35.2941 12.1159C35.2941 12.4081 35.4103 12.6882 35.6172 12.8948C35.824 13.1013 36.1045 13.2174 36.3971 13.2174C36.6896 13.2174 36.9701 13.1013 37.177 12.8948C37.3838 12.6882 37.5 12.4081 37.5 12.1159C37.5 11.8238 37.3838 11.5437 37.177 11.3371C36.9701 11.1305 36.6896 11.0145 36.3971 11.0145ZM27.5735 13.2174C27.281 13.2174 27.0005 13.3334 26.7936 13.54C26.5868 13.7466 26.4706 14.0267 26.4706 14.3188C26.4706 14.611 26.5868 14.8911 26.7936 15.0977C27.0005 15.3042 27.281 15.4203 27.5735 15.4203C27.866 15.4203 28.1466 15.3042 28.3534 15.0977C28.5603 14.8911 28.6765 14.611 28.6765 14.3188C28.6765 14.0267 28.5603 13.7466 28.3534 13.54C28.1466 13.3334 27.866 13.2174 27.5735 13.2174ZM45.2206 13.2174C44.9281 13.2174 44.6475 13.3334 44.4407 13.54C44.2338 13.7466 44.1176 14.0267 44.1176 14.3188C44.1176 14.611 44.2338 14.8911 44.4407 15.0977C44.6475 15.3042 44.9281 15.4203 45.2206 15.4203C45.5131 15.4203 45.7936 15.3042 46.0005 15.0977C46.2073 14.8911 46.3235 14.611 46.3235 14.3188C46.3235 14.0267 46.2073 13.7466 46.0005 13.54C45.7936 13.3334 45.5131 13.2174 45.2206 13.2174ZM36.3971 15.4203C36.1045 15.4203 35.824 15.5363 35.6172 15.7429C35.4103 15.9495 35.2941 16.2296 35.2941 16.5217C35.2941 16.8139 35.4103 17.094 35.6172 17.3006C35.824 17.5071 36.1045 17.6232 36.3971 17.6232C36.6896 17.6232 36.9701 17.5071 37.177 17.3006C37.3838 17.094 37.5 16.8139 37.5 16.5217C37.5 16.2296 37.3838 15.9495 37.177 15.7429C36.9701 15.5363 36.6896 15.4203 36.3971 15.4203ZM28.7282 17.6232C28.5435 17.6272 28.3627 17.6775 28.2025 17.7695C28.077 17.8419 27.967 17.9383 27.8788 18.0532C27.7906 18.168 27.726 18.2992 27.6885 18.439C27.6511 18.5789 27.6417 18.7247 27.6608 18.8682C27.6798 19.0118 27.7271 19.1501 27.7997 19.2754C27.9461 19.528 28.1869 19.7122 28.4693 19.7876C28.7516 19.8631 29.0523 19.8235 29.3055 19.6776C29.5588 19.5318 29.7438 19.2915 29.8197 19.0095C29.8956 18.7275 29.8564 18.427 29.7105 18.1739C29.6114 18.0024 29.4679 17.8608 29.295 17.7639C29.1222 17.6669 28.9264 17.6184 28.7282 17.6232ZM43.9862 17.6253C43.8016 17.6343 43.6222 17.6894 43.4645 17.7856C43.3068 17.8818 43.1758 18.0161 43.0836 18.1761C42.9376 18.4289 42.898 18.7292 42.9735 19.0112C43.049 19.2931 43.2335 19.5336 43.4865 19.6798C43.7396 19.8257 44.0404 19.8652 44.3227 19.7898C44.605 19.7144 44.8458 19.5301 44.9922 19.2775C45.0649 19.1522 45.1121 19.0139 45.1312 18.8704C45.1503 18.7269 45.1408 18.581 45.1034 18.4412C45.066 18.3013 45.0014 18.1702 44.9132 18.0553C44.825 17.9404 44.7149 17.844 44.5894 17.7716C44.4065 17.6662 44.1972 17.6154 43.9862 17.6253ZM62.3291 19.6518C63.199 19.6596 64.0282 19.7522 64.8021 19.8949C66.5786 20.2225 67.8551 20.7476 68.7615 21.1943L60.4636 29.4788L60.6618 29.709C60.6616 29.7191 60.6616 29.7291 60.6618 29.7391C60.6617 30.0018 60.7557 30.2559 60.9267 30.4555C61.0977 30.6552 61.3346 30.7871 61.5945 30.8277C63.4421 33.0646 64.9791 35.464 66.1075 37.9096L66.4027 38.5507H71.6912C72.3144 38.5507 72.7941 39.0298 72.7941 39.6522V52.8696C72.7941 53.4919 72.3144 53.971 71.6912 53.971H67.3699L67.1049 54.696C65.302 59.6438 61.6724 63.724 56.7864 66.6506L56.25 66.9711V72.6956C56.25 73.318 55.7703 73.7971 55.1471 73.7971H49.6324C49.0092 73.7971 48.5294 73.318 48.5294 72.6956V70.1658L47.1723 70.4863C44.1323 71.2072 40.8826 71.5942 37.5 71.5942C34.5129 71.5942 31.6292 71.2922 28.9005 70.7251L27.5735 70.4476V72.6956C27.5735 73.318 27.0938 73.7971 26.4706 73.7971H20.9559C20.3327 73.7971 19.8529 73.318 19.8529 72.6956V67.5735L19.2778 67.2594C11.5399 63.0437 6.61765 56.1214 6.61765 47.3623C6.61765 37.1602 13.4398 27.1424 23.4267 22.1043C23.2634 22.4119 23.1618 22.7578 23.1618 23.1304C23.1618 24.3475 24.1489 25.3333 25.3676 25.3333H47.4265C48.6452 25.3333 49.6324 24.3475 49.6324 23.1304C49.6324 22.4453 49.3133 21.8413 48.8224 21.4374C48.8673 21.3593 48.906 21.2776 48.9495 21.1986C50.1608 21.7281 51.345 22.3154 52.478 22.9863L53.1523 23.3843L53.7511 22.8809C56.7394 20.3757 59.7195 19.6285 62.3291 19.6518ZM58.4559 31.942C58.1634 31.942 57.8828 32.0581 57.676 32.2646C57.4691 32.4712 57.3529 32.7514 57.3529 33.0435C57.3529 33.3356 57.4691 33.6158 57.676 33.8223C57.8828 34.0289 58.1634 34.1449 58.4559 34.1449C58.7484 34.1449 59.0289 34.0289 59.2358 33.8223C59.4426 33.6158 59.5588 33.3356 59.5588 33.0435C59.5588 32.7514 59.4426 32.4712 59.2358 32.2646C59.0289 32.0581 58.7484 31.942 58.4559 31.942ZM55.1471 35.2464C54.8545 35.2464 54.574 35.3624 54.3672 35.569C54.1603 35.7755 54.0441 36.0557 54.0441 36.3478C54.0441 36.6399 54.1603 36.9201 54.3672 37.1267C54.574 37.3332 54.8545 37.4493 55.1471 37.4493C55.4396 37.4493 55.7201 37.3332 55.927 37.1267C56.1338 36.9201 56.25 36.6399 56.25 36.3478C56.25 36.0557 56.1338 35.7755 55.927 35.569C55.7201 35.3624 55.4396 35.2464 55.1471 35.2464ZM68.3824 40.7536C68.0898 40.7536 67.8093 40.8697 67.6025 41.0762C67.3956 41.2828 67.2794 41.563 67.2794 41.8551C67.2794 42.1472 67.3956 42.4274 67.6025 42.6339C67.8093 42.8405 68.0898 42.9565 68.3824 42.9565C68.6749 42.9565 68.9554 42.8405 69.1622 42.6339C69.3691 42.4274 69.4853 42.1472 69.4853 41.8551C69.4853 41.563 69.3691 41.2828 69.1622 41.0762C68.9554 40.8697 68.6749 40.7536 68.3824 40.7536ZM68.3824 45.1594C68.0898 45.1594 67.8093 45.2755 67.6025 45.482C67.3956 45.6886 67.2794 45.9687 67.2794 46.2609C67.2794 46.553 67.3956 46.8331 67.6025 47.0397C67.8093 47.2463 68.0898 47.3623 68.3824 47.3623C68.6749 47.3623 68.9554 47.2463 69.1622 47.0397C69.3691 46.8331 69.4853 46.553 69.4853 46.2609C69.4853 45.9687 69.3691 45.6886 69.1622 45.482C68.9554 45.2755 68.6749 45.1594 68.3824 45.1594ZM68.3824 49.5652C68.0898 49.5652 67.8093 49.6813 67.6025 49.8878C67.3956 50.0944 67.2794 50.3745 67.2794 50.6667C67.2794 50.9588 67.3956 51.2389 67.6025 51.4455C67.8093 51.6521 68.0898 51.7681 68.3824 51.7681C68.6749 51.7681 68.9554 51.6521 69.1622 51.4455C69.3691 51.2389 69.4853 50.9588 69.4853 50.6667C69.4853 50.3745 69.3691 50.0944 69.1622 49.8878C68.9554 49.6813 68.6749 49.5652 68.3824 49.5652ZM28.6765 61.6812C28.384 61.6812 28.1034 61.7972 27.8966 62.0038C27.6897 62.2103 27.5735 62.4905 27.5735 62.7826C27.5735 63.0747 27.6897 63.3549 27.8966 63.5615C28.1034 63.768 28.384 63.8841 28.6765 63.8841C28.969 63.8841 29.2495 63.768 29.4564 63.5615C29.6632 63.3549 29.7794 63.0747 29.7794 62.7826C29.7794 62.4905 29.6632 62.2103 29.4564 62.0038C29.2495 61.7972 28.969 61.6812 28.6765 61.6812ZM47.4265 61.6812C47.134 61.6812 46.8534 61.7972 46.6466 62.0038C46.4397 62.2103 46.3235 62.4905 46.3235 62.7826C46.3235 63.0747 46.4397 63.3549 46.6466 63.5615C46.8534 63.768 47.134 63.8841 47.4265 63.8841C47.719 63.8841 47.9995 63.768 48.2064 63.5615C48.4132 63.3549 48.5294 63.0747 48.5294 62.7826C48.5294 62.4905 48.4132 62.2103 48.2064 62.0038C47.9995 61.7972 47.719 61.6812 47.4265 61.6812ZM28.6765 66.087C28.384 66.087 28.1034 66.203 27.8966 66.4096C27.6897 66.6161 27.5735 66.8963 27.5735 67.1884C27.5735 67.4805 27.6897 67.7607 27.8966 67.9672C28.1034 68.1738 28.384 68.2899 28.6765 68.2899C28.969 68.2899 29.2495 68.1738 29.4564 67.9672C29.6632 67.7607 29.7794 67.4805 29.7794 67.1884C29.7794 66.8963 29.6632 66.6161 29.4564 66.4096C29.2495 66.203 28.969 66.087 28.6765 66.087ZM47.4265 66.087C47.134 66.087 46.8534 66.203 46.6466 66.4096C46.4397 66.6161 46.3235 66.8963 46.3235 67.1884C46.3235 67.4805 46.4397 67.7607 46.6466 67.9672C46.8534 68.1738 47.134 68.2899 47.4265 68.2899C47.719 68.2899 47.9995 68.1738 48.2064 67.9672C48.4132 67.7607 48.5294 67.4805 48.5294 67.1884C48.5294 66.8963 48.4132 66.6161 48.2064 66.4096C47.9995 66.203 47.719 66.087 47.4265 66.087Z"/>
</svg>
